<?xml version="1.0" standalone="no"?>
<!DOCTYPE svg PUBLIC "-//W3C//DTD SVG 20010904//EN"
 "http://www.w3.org/TR/2001/REC-SVG-20010904/DTD/svg10.dtd">
<svg version="1.0" xmlns="http://www.w3.org/2000/svg"
 width="752.000000pt" height="736.000000pt" viewBox="0 0 752.000000 736.000000"
 preserveAspectRatio="xMidYMid meet">

<g transform="translate(0.000000,736.000000) scale(0.100000,-0.100000)"
fill="#000000" stroke="none">
<path d="M72 7329 c33 -41 168 -237 168 -244 0 -2 14 -28 31 -57 88 -148 154
-310 178 -440 13 -67 10 -113 -4 -73 -4 11 -12 31 -18 44 l-12 23 -6 -23 c-5
-16 -6 -7 -6 24 1 26 -4 51 -10 55 -6 4 -22 30 -36 57 -53 108 -57 114 -75
109 -14 -5 -14 -4 -2 4 14 10 6 26 -30 62 -3 3 -12 18 -20 33 -8 16 -36 50
-62 77 -26 27 -48 52 -48 55 0 3 -26 33 -58 65 l-58 60 -2 -139 c-3 -127 -1
-140 15 -144 17 -4 17 -5 1 -6 -15 -1 -18 -11 -18 -53 0 -49 2 -54 63 -117 34
-36 105 -113 157 -170 52 -58 103 -113 112 -122 9 -10 24 -32 33 -50 30 -57
125 -330 160 -459 37 -138 108 -470 101 -477 -2 -2 7 -52 20 -111 25 -109 44
-353 30 -388 -6 -15 -13 -11 -47 26 -22 25 -54 64 -72 88 -62 83 -287 377
-300 392 -6 8 -28 35 -47 60 -19 25 -39 50 -45 56 -5 6 -37 46 -70 89 -33 43
-68 87 -78 99 -17 21 -18 21 -15 -13 2 -20 14 -46 28 -62 14 -15 30 -33 35
-40 41 -55 55 -80 49 -90 -4 -7 -1 -10 7 -7 13 4 75 -68 164 -192 21 -30 47
-64 57 -75 59 -66 145 -190 141 -202 -4 -9 0 -11 11 -7 9 3 16 2 16 -4 0 -5
39 -59 88 -119 90 -113 97 -123 178 -233 27 -36 51 -67 54 -70 24 -21 48 -70
43 -88 -3 -12 -9 -22 -13 -22 -11 0 -25 40 -22 60 3 13 2 13 -7 0 -14 -20 -20
-11 -23 33 -3 45 -28 72 -57 62 -14 -4 -21 -2 -21 7 0 8 -14 27 -31 44 -18 17
-28 36 -26 46 3 10 2 17 -2 16 -22 -2 -31 5 -31 28 0 40 -31 86 -55 80 -15 -3
-30 8 -57 45 -21 27 -38 53 -38 59 0 5 -4 10 -9 10 -5 0 -12 17 -16 38 -9 52
-32 85 -55 79 -13 -3 -29 8 -52 36 -18 22 -43 52 -56 67 -13 17 -22 41 -22 63
0 38 -27 67 -61 67 -10 0 -27 12 -38 28 -11 15 -27 34 -35 42 -8 8 -24 35 -36
60 -11 25 -27 56 -34 70 -7 15 -20 25 -34 25 -13 0 -27 7 -32 15 -6 9 -10
-219 -10 -607 l0 -622 67 -39 c38 -22 95 -53 128 -69 33 -17 159 -79 280 -140
228 -114 399 -198 520 -253 242 -111 464 -214 490 -228 26 -14 213 -110 345
-178 47 -24 69 -23 35 2 -11 8 -57 33 -102 56 -46 23 -83 46 -83 50 0 4 2 8 4
8 3 0 150 -66 221 -100 112 -53 361 -120 446 -120 28 0 46 -6 55 -17 7 -10 16
-15 19 -11 4 4 -14 31 -40 60 -109 121 -165 235 -202 411 -23 114 -25 134 -18
292 3 93 10 176 15 185 8 12 10 12 10 -5 2 -24 28 39 29 69 1 15 -2 16 -14 6
-21 -17 -19 -1 5 38 23 38 30 40 24 10 -2 -13 7 10 21 51 14 41 30 80 36 87 6
8 8 21 5 30 -4 10 1 25 10 35 9 10 14 27 11 39 -5 21 8 28 16 8 3 -11 32 42
50 95 4 9 13 17 21 17 8 0 18 9 21 20 4 11 18 34 32 50 13 16 28 42 32 57 5
16 14 27 20 25 7 -1 21 18 32 43 11 26 28 49 37 52 18 7 101 93 102 106 0 4
-4 7 -10 7 -15 0 -270 -261 -270 -276 0 -8 -6 -14 -13 -14 -7 0 -20 -15 -29
-32 -27 -55 -29 -68 -11 -68 13 0 14 -3 5 -12 -10 -9 -16 -9 -28 4 -15 15 -19
13 -53 -31 -68 -88 -74 -110 -41 -138 26 -23 26 -43 0 -36 -16 4 -20 0 -20
-17 0 -16 4 -20 15 -16 11 4 9 -4 -7 -24 -12 -16 -24 -28 -26 -25 -3 2 1 12 9
21 8 10 10 19 4 21 -6 2 -9 24 -8 51 l3 47 -16 -34 c-9 -19 -13 -46 -10 -60 6
-23 5 -24 -5 -7 -11 18 -13 17 -30 -15 -23 -43 -23 -51 -2 -47 22 4 30 -32 10
-44 -9 -4 -18 -22 -22 -39 -4 -17 -9 -28 -12 -25 -3 2 0 21 7 41 13 38 7 56
-11 38 -7 -7 -11 -33 -11 -59 1 -48 -22 -94 -44 -87 -6 2 -14 -6 -17 -17 -4
-17 -3 -19 9 -9 18 15 18 7 0 -36 -15 -36 -30 -49 -20 -17 5 14 4 15 -5 2 -6
-8 -8 -23 -5 -33 3 -10 -2 -34 -11 -54 -9 -19 -33 -97 -52 -172 -30 -119 -35
-153 -36 -268 -1 -73 -3 -133 -4 -133 -1 0 -17 26 -36 58 -47 80 -68 167 -74
302 -6 127 7 203 68 405 135 440 588 982 1004 1199 27 14 42 26 32 26 -35 0
-157 -72 -294 -172 -50 -38 -96 -68 -102 -68 -6 0 -11 -5 -11 -10 0 -6 -3 -9
-7 -9 -18 3 -29 -2 -55 -25 -29 -24 -40 -49 -13 -26 9 7 17 11 20 8 2 -2 -5
-12 -16 -21 -19 -16 -20 -16 -27 3 -7 18 -11 17 -69 -19 -186 -118 -424 -361
-583 -594 -55 -82 -149 -264 -170 -332 -25 -81 -33 -64 -27 64 4 68 11 129 16
134 5 5 7 15 4 23 -7 18 20 97 58 170 99 190 256 336 569 529 44 28 95 59 113
70 18 11 54 34 81 50 27 17 78 49 113 73 35 23 66 42 69 42 11 0 314 200 314
207 0 3 -11 -2 -24 -11 -14 -8 -40 -24 -58 -34 -18 -11 -72 -44 -120 -76 -48
-31 -90 -56 -93 -56 -3 0 -18 -8 -33 -19 -15 -10 -81 -50 -147 -89 -66 -38
-134 -78 -151 -88 -150 -90 -220 -134 -286 -180 -43 -30 -80 -54 -83 -54 -8 0
-150 117 -200 165 -147 139 -245 358 -309 690 -43 223 -45 325 -7 500 29 137
41 144 42 25 1 -62 2 -63 50 -108 27 -25 49 -50 49 -56 0 -6 -14 -47 -31 -91
-17 -44 -37 -95 -44 -114 -6 -18 -18 -37 -26 -41 -7 -5 -10 -12 -6 -16 10 -10
75 55 145 144 31 39 60 72 64 72 11 0 10 38 -1 44 -27 17 -32 213 -7 319 9 38
16 70 16 73 0 11 -18 2 -43 -22 -16 -15 -32 -22 -37 -18 -10 12 10 84 33 115
l18 24 23 -27 c13 -15 26 -32 28 -39 4 -12 31 9 121 94 31 29 78 57 97 57 6 0
-5 -20 -24 -44 -51 -61 -45 -80 7 -23 23 25 66 62 96 81 42 27 51 37 38 42 -9
3 -30 1 -46 -4 -27 -9 -209 -8 -218 2 -11 11 -33 148 -39 246 -6 96 -5 110 9
110 24 0 44 -25 62 -81 9 -27 19 -48 22 -45 7 7 -16 104 -36 151 -10 22 -28
65 -41 95 -26 61 -37 76 -45 68 -5 -5 17 -62 46 -120 13 -25 11 -28 -13 -25
-18 2 -23 -5 -31 -38 -11 -51 0 -217 19 -270 7 -22 14 -49 14 -61 0 -34 31
-54 83 -54 26 0 47 -3 47 -6 0 -4 -33 -37 -73 -75 -67 -64 -97 -82 -97 -59 0
5 -11 17 -24 25 -19 13 -29 14 -44 6 -28 -15 -62 -90 -62 -134 0 -43 17 -55
51 -37 20 11 21 10 16 -11 -3 -13 -11 -66 -18 -117 -10 -75 -10 -99 0 -128 7
-19 10 -38 7 -41 -3 -3 1 -18 9 -34 15 -28 14 -30 -37 -93 -28 -36 -53 -64
-56 -62 -2 2 5 21 16 43 11 21 25 55 31 75 15 45 2 68 -59 113 -39 30 -40 30
-40 97 0 89 -65 266 -107 291 -7 4 -13 12 -13 16 0 5 25 53 56 107 90 159 121
226 144 310 12 43 28 102 35 129 21 76 29 155 16 155 -6 0 -11 -12 -11 -28 0
-31 -30 -148 -60 -232 -10 -30 -24 -74 -30 -97 -6 -24 -14 -43 -19 -43 -4 0
-11 73 -15 163 -8 196 -14 237 -33 237 -11 0 -14 -7 -10 -22 4 -12 12 -114 19
-226 14 -231 16 -218 -64 -354 l-53 -89 -7 77 c-15 163 -58 339 -125 512 -33
86 -48 111 -59 99 -3 -3 7 -33 22 -68 43 -102 95 -276 115 -384 23 -123 43
-467 34 -595 -3 -52 -13 -142 -21 -199 -17 -124 -16 -111 -5 -111 5 0 12 15
15 33 15 81 36 353 36 470 0 70 4 127 8 127 25 0 72 -91 72 -139 0 -14 -10
-69 -21 -121 -11 -52 -27 -129 -34 -170 -7 -41 -18 -88 -23 -105 -6 -16 -20
-67 -33 -113 -14 -52 -25 -78 -30 -70 -4 7 -10 10 -13 7 -12 -12 -58 -206 -83
-349 -23 -133 -27 -184 -27 -365 -1 -191 6 -267 29 -328 15 -37 -17 -15 -49
36 -113 177 -243 478 -322 745 -82 278 -84 291 -59 414 52 252 205 557 273
546 14 -2 18 6 20 47 9 130 -46 364 -128 550 -17 39 -38 87 -47 108 -9 20 -22
37 -30 37 -11 0 -10 -7 3 -37 9 -21 23 -54 31 -73 8 -19 23 -54 34 -78 19 -42
27 -65 64 -181 24 -80 45 -207 45 -281 0 -61 -2 -67 -27 -82 -43 -25 -71 -59
-114 -139 -35 -65 -39 -70 -34 -37 3 20 19 76 35 125 32 95 31 112 -6 177 -13
23 -24 52 -24 65 0 27 -26 64 -114 165 -136 155 -263 260 -396 327 -76 39 -94
44 -170 47 l-84 4 26 -33z m119 1 c35 -11 98 -39 139 -64 80 -47 264 -195 273
-220 3 -8 -1 -39 -9 -68 -18 -64 -67 -261 -84 -340 -7 -32 -16 -58 -19 -58 -3
0 -13 31 -22 68 -9 37 -29 99 -44 137 -34 86 -150 320 -165 335 -3 3 -21 30
-40 60 -19 30 -51 77 -72 104 -57 74 -55 77 43 46z m-145 -245 c17 -16 14 -18
-10 -9 -9 3 -16 10 -16 15 0 13 9 11 26 -6z m619 -165 c17 -33 18 -40 8 -40
-8 0 -33 47 -33 62 0 16 10 7 25 -22z m-35 -40 c0 -22 -5 -40 -10 -40 -6 0 -9
12 -6 28 2 15 5 33 5 40 1 6 3 12 6 12 3 0 5 -18 5 -40z m90 18 c0 -13 -23 -5
-28 10 -2 7 2 10 12 6 9 -3 16 -11 16 -16z m-560 2 c0 -5 -2 -10 -4 -10 -3 0
-8 5 -11 10 -3 6 -1 10 4 10 6 0 11 -4 11 -10z m600 -50 c0 -5 -2 -10 -4 -10
-3 0 -8 5 -11 10 -3 6 -1 10 4 10 6 0 11 -4 11 -10z m-570 -10 c0 -5 -7 -10
-15 -10 -8 0 -15 5 -15 10 0 6 7 10 15 10 8 0 15 -4 15 -10z m560 -26 c0 -3
-7 -1 -15 6 -8 7 -15 17 -15 22 0 5 7 3 15 -6 8 -8 15 -18 15 -22z m-154 -56
c-9 -12 -16 -17 -16 -10 0 14 23 42 29 37 1 -2 -4 -14 -13 -27z m-491 -8 c3
-5 -3 -10 -14 -10 -12 0 -21 5 -21 10 0 6 6 10 14 10 8 0 18 -4 21 -10z m523
-51 c-3 -8 -7 -3 -11 10 -4 17 -3 21 5 13 5 -5 8 -16 6 -23z m212 6 c10 -25 3
-85 -9 -85 -4 0 -7 25 -7 55 0 30 2 55 3 55 2 0 8 -11 13 -25z m-630 -24 c0
-25 5 -41 15 -45 8 -3 15 -10 15 -16 0 -6 -7 -4 -16 5 -9 9 -22 14 -29 12 -8
-4 -11 4 -9 21 1 15 2 35 3 45 2 35 21 16 21 -22z m-53 -3 c-3 -7 -5 -2 -5 12
0 14 2 19 5 13 2 -7 2 -19 0 -25z m417 16 c3 -9 6 -25 6 -37 0 -13 3 -17 8
-10 4 6 7 -10 8 -36 0 -51 81 -304 94 -296 5 3 6 -4 3 -14 -3 -11 3 -40 12
-64 16 -43 16 -48 -4 -128 -75 -302 -40 -705 84 -974 45 -96 144 -253 198
-313 59 -66 158 -154 165 -148 3 4 -16 28 -44 54 -115 110 -254 300 -299 408
-20 48 -11 39 49 -53 48 -73 177 -203 202 -203 8 0 31 -11 52 -25 93 -62 361
-131 515 -134 l48 -1 -29 -43 c-34 -48 -57 -99 -81 -174 l-16 -52 -90 43 c-49
24 -121 64 -160 90 -38 26 -79 53 -90 59 -18 9 -18 8 -7 -6 21 -25 200 -141
274 -178 l68 -33 -6 -82 c-4 -46 -2 -116 5 -160 9 -64 9 -89 -3 -134 -7 -30
-14 -47 -15 -38 -1 11 -6 15 -16 12 -8 -4 -15 -1 -15 5 0 6 -5 11 -10 11 -6 0
-23 12 -38 26 -29 27 -88 62 -78 46 9 -16 -14 -26 -27 -13 -9 9 -9 14 1 20 11
7 10 10 -3 14 -9 4 -13 3 -10 -3 3 -6 1 -10 -5 -10 -7 0 -14 9 -17 20 -3 11
-11 20 -17 20 -14 0 -126 116 -126 130 0 4 -3 10 -8 12 -4 2 -30 30 -57 62
-28 33 -60 71 -72 84 -13 14 -23 31 -23 38 0 8 -4 14 -9 14 -5 0 -13 9 -16 20
-4 11 -10 18 -15 15 -4 -3 -6 4 -3 15 3 12 0 20 -6 20 -7 0 -9 -5 -5 -12 5 -7
3 -8 -5 -4 -7 5 -10 14 -7 21 3 8 -3 24 -13 37 -10 13 -26 37 -35 53 -9 17
-16 23 -15 15 4 -39 -2 -43 -21 -15 -11 17 -20 35 -20 40 0 6 4 4 9 -4 5 -8
11 -9 15 -3 8 14 -4 43 -18 41 -17 -3 -46 12 -46 23 0 6 -8 18 -17 27 -20 18
-63 77 -63 86 0 3 5 5 10 5 6 0 10 -4 10 -9 0 -19 48 -62 55 -51 4 6 0 19 -8
28 -9 9 -19 30 -23 46 -4 16 -13 41 -20 54 -12 24 -13 24 -16 -14 -2 -21 -7
29 -11 111 -6 95 -19 201 -37 290 -15 77 -38 196 -50 265 -12 69 -25 136 -30
150 -5 14 -27 97 -50 185 -23 88 -46 165 -50 170 -19 25 -49 129 -41 144 5 9
11 41 14 71 8 71 88 390 97 390 4 0 11 -7 14 -16z m233 -26 c-3 -8 -6 -5 -6 6
-1 11 2 17 5 13 3 -3 4 -12 1 -19z m-572 -86 c-3 -3 -16 5 -28 17 l-22 23 28
-17 c15 -10 25 -20 22 -23z m42 -28 c-3 -3 -12 -4 -19 -1 -8 3 -5 6 6 6 11 1
17 -2 13 -5z m33 -15 c0 -5 4 -8 9 -4 5 3 12 1 15 -4 3 -5 0 -11 -7 -14 -8 -3
-19 4 -25 14 -8 12 -8 19 -2 19 5 0 10 -5 10 -11z m-20 -24 c7 -9 8 -15 2 -15
-5 0 -12 7 -16 15 -3 8 -4 15 -2 15 2 0 9 -7 16 -15z m151 -29 c13 -14 11 -56
-2 -56 -7 0 -9 -10 -5 -25 5 -19 2 -25 -9 -25 -12 0 -15 6 -10 23 4 12 11 26
16 32 5 5 9 18 8 30 0 20 0 20 -9 0 -6 -15 -8 -9 -8 25 0 25 2 36 5 25 3 -11
9 -24 14 -29z m-31 4 c0 -4 -8 -15 -19 -24 -15 -14 -19 -14 -24 -3 -3 8 -1 19
4 24 11 11 39 13 39 3z m-56 -36 c4 -10 1 -14 -6 -12 -15 5 -23 28 -10 28 5 0
13 -7 16 -16z m44 -58 c-7 -6 -9 -7 -5 -2 4 5 2 15 -4 23 -9 9 -8 13 0 13 6 0
12 8 12 18 1 9 4 4 6 -12 3 -16 -1 -33 -9 -40z m372 -36 c0 -5 -5 -10 -11 -10
-5 0 -7 5 -4 10 3 6 8 10 11 10 2 0 4 -4 4 -10z m-343 -47 c-3 -10 -5 -2 -5
17 0 19 2 27 5 18 2 -10 2 -26 0 -35z m322 -13 c0 -9 -4 -8 -9 5 -5 11 -9 27
-9 35 0 9 4 8 9 -5 5 -11 9 -27 9 -35z m586 -247 c2 -15 6 -59 10 -98 6 -67
27 -182 59 -325 16 -73 74 -233 108 -295 68 -126 190 -261 283 -315 27 -16 58
-38 67 -49 16 -19 16 -21 -13 -46 -17 -14 -37 -25 -44 -25 -7 0 -16 -6 -18
-12 -4 -8 -8 -4 -12 10 -4 12 -15 22 -25 22 -20 0 -46 27 -36 37 7 7 -20 36
-93 106 -19 18 -42 40 -50 50 -49 57 -88 87 -110 88 -17 1 -20 3 -8 6 23 6 22
12 -11 42 -15 14 -41 44 -57 66 -16 22 -35 46 -42 53 -7 7 -13 19 -13 26 0 6
-5 17 -12 24 -6 6 -13 17 -15 24 -10 49 -22 87 -33 107 -7 14 -14 56 -17 95
-2 39 -8 75 -13 80 -13 13 -13 29 0 21 6 -3 10 -1 10 4 0 6 -4 11 -8 11 -12 0
2 87 21 135 9 22 26 75 38 117 24 81 30 88 34 41z m-635 -317 c-7 -7 -10 8 -9
50 l1 59 10 -49 c6 -33 6 -52 -2 -60z m533 -122 c-3 -100 -13 -109 -13 -12 0
61 4 88 14 88 1 0 0 -34 -1 -76z m-496 34 c-3 -7 -5 -2 -5 12 0 14 2 19 5 13
2 -7 2 -19 0 -25z m5 -58 c-6 -17 -9 -37 -6 -44 3 -7 -1 -16 -9 -19 -12 -4
-13 1 -6 26 15 59 22 78 26 73 3 -3 0 -19 -5 -36z m-35 -22 c-3 -7 -5 -2 -5
12 0 14 2 19 5 13 2 -7 2 -19 0 -25z m60 -20 c-3 -8 -6 -5 -6 6 -1 11 2 17 5
13 3 -3 4 -12 1 -19z m409 -53 c-1 -30 -4 -55 -8 -55 -9 0 -11 72 -2 94 9 24
10 21 10 -39z m-402 -23 c-4 -15 -8 -30 -9 -34 -2 -5 -3 -20 -4 -34 -1 -15 -5
-23 -12 -18 -12 7 -6 54 13 114 9 25 13 30 16 17 2 -10 0 -31 -4 -45z m458
-59 c2 -40 0 -67 -4 -60 -4 7 -7 48 -6 92 1 90 5 76 10 -32z m50 -15 c-4 -69
-15 -87 -26 -45 -10 38 -7 114 4 97 7 -11 10 -3 11 30 1 40 2 42 8 15 4 -16 5
-60 3 -97z m-555 45 c-3 -10 -5 -4 -5 12 0 17 2 24 5 18 2 -7 2 -21 0 -30z
m102 -45 c4 -13 11 -36 15 -53 7 -28 6 -29 -7 -10 -14 18 -15 16 -25 -35 l-10
-55 -1 47 c-1 27 5 52 12 60 9 8 11 21 6 33 -9 25 -11 35 -4 35 3 0 9 -10 14
-22z m-36 -40 l-10 -33 0 43 c0 29 3 40 10 33 7 -7 7 -21 0 -43z m-23 2 c0 -5
-4 -10 -10 -10 -5 0 -10 5 -10 10 0 6 5 10 10 10 6 0 10 -4 10 -10z m410 -41
c0 -6 -4 -7 -10 -4 -5 3 -10 11 -10 16 0 6 5 7 10 4 6 -3 10 -11 10 -16z m71
-57 c2 -23 0 -45 -4 -48 -4 -4 -7 17 -7 46 0 62 8 64 11 2z m-401 26 c0 7 5
10 10 7 6 -4 8 -10 5 -15 -3 -4 2 -13 11 -20 12 -11 12 -15 2 -21 -20 -13 -24
-11 -36 16 -15 32 -16 56 -2 35 7 -11 10 -11 10 -2z m430 -35 c0 -24 -3 -33
-9 -25 -7 12 -4 62 5 62 2 0 4 -17 4 -37z m-90 -9 c0 -19 4 -43 9 -52 5 -10 4
-38 -2 -70 -10 -46 -9 -58 5 -83 15 -26 15 -33 3 -61 -15 -36 -17 -33 -16 27
0 35 -1 37 -9 15 -7 -22 -8 -22 -10 -5 -4 39 2 100 10 105 9 6 6 106 -5 139
-4 12 -2 21 4 21 6 0 11 -16 11 -36z m190 -8 c0 -3 -4 -8 -10 -11 -5 -3 -10
-1 -10 4 0 6 5 11 10 11 6 0 10 -2 10 -4z m-540 -32 c0 -8 -4 -12 -10 -9 -5 3
-10 13 -10 21 0 8 5 12 10 9 6 -3 10 -13 10 -21z m70 -6 c0 -5 -4 -8 -10 -8
-5 0 -10 10 -10 23 0 18 2 19 10 7 5 -8 10 -18 10 -22z m-30 -10 c0 -17 -18
-44 -24 -37 -8 7 5 49 15 49 5 0 9 -6 9 -12z m267 -35 c-3 -10 -5 -2 -5 17 0
19 2 27 5 18 2 -10 2 -26 0 -35z m331 19 c6 -18 -15 -14 -22 4 -4 10 -1 14 6
12 6 -2 14 -10 16 -16z m-581 -29 c-2 -10 3 -31 11 -48 l14 -30 -26 29 c-30
33 -31 37 -14 54 16 16 20 15 15 -5z m383 2 c0 -8 -4 -15 -10 -15 -5 0 -10 7
-10 15 0 8 5 15 10 15 6 0 10 -7 10 -15z m194 -10 c-4 -8 -11 -15 -16 -15 -6
0 -5 6 2 15 7 8 14 15 16 15 2 0 1 -7 -2 -15z m-239 -77 c4 -10 3 -18 -3 -18
-10 0 -23 49 -21 84 1 12 4 6 9 -14 4 -19 11 -43 15 -52z m-300 62 c-3 -5 -12
-10 -18 -10 -7 0 -6 4 3 10 19 12 23 12 15 0z m225 -26 c0 -14 -4 -22 -10 -19
-5 3 -10 17 -10 31 0 14 4 22 10 19 6 -3 10 -17 10 -31z m-200 -17 c0 -13 5
-28 12 -35 9 -9 9 -15 -1 -24 -12 -11 -13 -10 -7 6 5 13 2 17 -9 13 -8 -4 -17
-1 -21 5 -4 7 -3 8 4 4 7 -4 12 -1 12 8 0 8 -4 18 -10 21 -15 9 -12 25 5 25 9
0 15 -9 15 -23z m384 17 c27 -10 19 -32 -9 -26 -14 2 -25 11 -25 18 0 15 10
17 34 8z m970 -9 c-7 -16 -24 -21 -24 -6 0 8 7 13 27 20 1 1 0 -6 -3 -14z m36
-10 c-7 -8 -18 -15 -24 -15 -6 0 -2 7 8 15 25 19 32 19 16 0z m-765 -12 c-11
-3 -24 -9 -29 -14 -6 -5 -17 -9 -25 -9 -10 0 -6 6 9 14 14 8 34 14 45 14 l20
0 -20 -5z m735 -24 c0 -4 -7 -6 -15 -3 -8 4 -15 10 -15 15 0 4 7 6 15 3 8 -4
15 -10 15 -15z m-971 -39 c10 -22 15 -40 10 -40 -6 0 -7 -4 -4 -10 3 -5 1 -18
-5 -27 -9 -15 -10 -14 -4 6 4 14 2 21 -3 18 -6 -4 -10 6 -10 21 0 15 -4 37 -8
50 -12 36 3 25 24 -18z m271 24 c0 -8 -4 -12 -10 -9 -5 3 -10 10 -10 16 0 5 5
9 10 9 6 0 10 -7 10 -16z m639 -11 c-12 -15 -12 -16 4 -10 15 6 16 4 6 -15
l-11 -21 -13 24 c-10 18 -10 26 -2 31 21 14 30 8 16 -9z m-1263 -20 c-10 -10
-19 5 -10 18 6 11 8 11 12 0 2 -7 1 -15 -2 -18z m1199 -3 c-10 -11 -23 -20
-29 -20 -6 1 0 10 13 20 30 26 39 26 16 0z m-545 -5 c7 -8 8 -15 2 -15 -5 0
-15 7 -22 15 -7 8 -8 15 -2 15 5 0 15 -7 22 -15z m583 -9 c4 -11 1 -13 -10 -9
-10 4 -14 2 -10 -4 3 -5 -5 -16 -18 -23 -14 -7 -25 -20 -25 -28 0 -12 4 -11
21 4 22 19 22 19 10 -4 -8 -15 -18 -21 -28 -18 -12 5 -14 1 -10 -14 6 -25 -7
-34 -23 -15 -9 11 -7 20 10 43 12 17 20 35 16 40 -4 6 3 8 16 5 13 -3 20 -3
16 2 -7 7 11 34 23 35 4 0 9 -7 12 -14z m-1213 -6 c0 -5 -5 -10 -11 -10 -5 0
-7 5 -4 10 3 6 8 10 11 10 2 0 4 -4 4 -10z m170 -86 c0 -18 4 -18 42 2 20 10
28 11 23 3 -6 -8 -2 -11 11 -7 11 3 26 -2 34 -11 18 -18 42 -63 37 -67 -5 -5
-107 33 -123 47 -8 6 -14 8 -14 3 0 -23 -29 37 -35 72 l-6 39 16 -34 c8 -18
15 -40 15 -47z m948 37 c-7 -12 -16 -21 -21 -21 -8 0 -2 14 16 38 16 20 20 6
5 -17z m339 -43 c-3 -8 -6 -5 -6 6 -1 11 2 17 5 13 3 -3 4 -12 1 -19z m-1087
-18 c0 -11 4 -20 9 -20 5 0 11 9 14 20 3 11 13 20 24 19 10 0 13 -3 6 -6 -16
-6 -17 -45 -1 -61 8 -8 9 -12 1 -12 -6 0 -14 6 -16 13 -4 9 -7 9 -14 -1 -7 -9
-14 -2 -26 23 -20 42 -20 45 -7 45 6 0 10 -9 10 -20z m329 6 c9 -11 10 -20 1
-36 -6 -11 -8 -25 -5 -30 4 -6 3 -10 -2 -9 -23 4 -33 -3 -34 -23 -1 -17 -2
-19 -6 -5 -6 23 -19 22 -26 -3 -5 -21 -51 -29 -62 -10 -4 6 5 10 19 10 14 0
26 5 26 11 0 6 -7 9 -15 5 -8 -3 -15 -1 -15 4 0 5 -10 11 -22 13 -13 3 0 4 28
2 65 -3 78 5 78 49 0 38 15 47 35 22z m316 -15 c-15 -31 -33 -47 -41 -38 -5 4
44 67 52 67 3 0 -2 -13 -11 -29z m105 -12 c0 -5 -7 -6 -16 -2 -13 5 -15 1 -9
-18 5 -18 4 -20 -4 -9 -9 13 -12 12 -25 -5 -21 -28 -22 -52 -1 -35 13 11 14
10 9 -4 -8 -22 -29 -15 -29 10 0 10 -4 23 -10 27 -6 5 -3 7 7 3 12 -3 19 2 24
17 11 37 25 49 40 36 8 -6 14 -15 14 -20z m-67 6 c-3 -9 -8 -14 -10 -11 -3 3
-2 9 2 15 9 16 15 13 8 -4z m387 10 c0 -12 -34 -43 -42 -38 -5 3 -2 14 8 24
16 18 34 25 34 14z m-897 -75 c40 0 32 -6 -20 -14 -34 -5 -43 -3 -43 8 0 16
23 28 28 15 2 -5 18 -9 35 -9z m427 16 c0 -2 -16 -21 -35 -40 -42 -43 -46 -37
-7 9 24 30 42 43 42 31z m-534 -19 c4 -4 -2 -7 -14 -7 -11 0 -23 4 -26 8 -6
10 30 9 40 -1z m588 -13 c3 -8 -3 -25 -14 -36 -24 -27 -28 -57 -5 -38 19 16
21 -7 1 -32 -11 -15 -14 -13 -25 18 -15 41 -7 76 16 67 12 -5 14 -1 8 15 -7
25 10 30 19 6z m-111 -101 c-14 -38 -44 -122 -67 -188 -22 -66 -41 -122 -43
-124 -3 -4 -80 15 -118 29 l-26 10 27 47 c76 133 174 263 198 263 6 0 4 -5 -4
-10 -9 -6 -10 -10 -3 -10 14 0 43 27 43 41 0 5 4 9 9 9 5 0 -2 -30 -16 -67z
m62 -5 c5 -26 -1 -46 -25 -88 -21 -39 -29 -46 -24 -26 6 25 4 28 -10 23 -22
-8 -20 3 5 33 l21 25 -7 -30 c-4 -21 -3 -27 4 -20 15 14 27 80 14 72 -6 -4 -8
3 -5 18 6 35 20 31 27 -7z m298 7 c-3 -9 -8 -14 -10 -11 -3 3 -2 9 2 15 9 16
15 13 8 -4z m-1388 -46 c11 -17 -1 -21 -15 -4 -8 9 -8 15 -2 15 6 0 14 -5 17
-11z m1355 -13 c0 -3 -4 -8 -10 -11 -5 -3 -10 -1 -10 4 0 6 5 11 10 11 6 0 10
-2 10 -4z m24 -61 c-4 -8 -8 -15 -10 -15 -2 0 -4 7 -4 15 0 8 4 15 10 15 5 0
7 -7 4 -15z m-354 -10 c0 -8 -4 -15 -10 -15 -5 0 -10 7 -10 15 0 8 5 15 10 15
6 0 10 -7 10 -15z m-1030 -2 c0 -5 25 -39 56 -78 30 -38 64 -81 74 -94 11 -13
17 -28 14 -33 -3 -4 1 -8 9 -8 7 0 20 -12 28 -27 7 -16 15 -31 17 -34 1 -4 -8
-4 -22 -2 -14 3 -38 22 -53 42 -15 20 -31 38 -35 39 -4 2 -8 21 -8 41 0 42
-38 88 -64 78 -23 -9 -48 26 -40 57 5 23 24 37 24 19z m1010 -67 c0 -8 -8 -20
-17 -27 -15 -12 -16 -12 -9 6 5 11 9 25 9 32 0 16 17 5 17 -11z m274 -59 c7
-6 6 -7 -4 -4 -8 2 -16 12 -17 23 -2 13 -1 15 4 4 3 -8 11 -19 17 -23z m-301
-28 c-8 -29 -13 -23 -13 14 0 22 3 28 9 18 5 -7 6 -22 4 -32z m-149 -32 c27
-10 58 -17 69 -17 16 0 18 -5 13 -26 -4 -14 -11 -94 -17 -177 -9 -149 -25
-291 -28 -253 -1 15 -4 16 -15 7 -11 -10 -20 -10 -37 -1 -17 10 -19 14 -8 22
10 7 9 8 -6 4 -11 -3 -27 -1 -35 4 -13 8 -13 10 -1 10 11 0 9 4 -4 14 -11 8
-23 12 -27 10 -9 -6 -58 17 -58 28 0 4 -6 7 -12 6 -30 -6 1 160 51 277 10 22
26 59 36 83 10 23 21 39 24 34 3 -5 28 -16 55 -25z m136 -7 c0 -5 -5 -10 -11
-10 -5 0 -7 5 -4 10 3 6 8 10 11 10 2 0 4 -4 4 -10z m253 -162 c-3 -58 2 -132
17 -248 29 -210 30 -224 7 -228 -23 -5 -108 28 -101 39 3 5 -7 9 -23 9 -15 0
-35 5 -43 11 -13 9 -12 10 3 5 9 -3 17 -1 17 5 0 6 -9 13 -20 16 -29 8 -26 35
20 175 33 102 116 298 126 298 2 0 1 -37 -3 -82z m-936 -23 c78 -105 77 -103
47 -97 -19 3 -24 9 -21 23 4 14 -2 21 -19 25 -14 4 -36 21 -49 39 -26 33 -32
51 -15 40 15 -9 12 7 -5 29 -16 21 -21 47 -7 31 5 -6 36 -46 69 -90z m157 -94
c38 -36 76 -73 85 -81 39 -36 223 -180 293 -229 71 -50 79 -59 92 -105 9 -28
24 -69 36 -90 11 -22 18 -42 15 -44 -3 -3 -52 18 -109 46 -99 48 -108 55 -153
118 -26 37 -59 79 -72 93 -13 14 -35 44 -49 66 -14 21 -53 73 -86 115 -63 76
-109 135 -136 173 -25 35 6 12 84 -62z m53 22 c-4 -3 0 -18 10 -32 16 -25 16
-25 -1 -12 -9 8 -22 23 -27 33 -8 14 -6 18 7 18 10 0 14 -3 11 -7z m-24 -173
c31 -41 68 -90 83 -108 23 -28 25 -35 13 -44 -12 -8 -11 -9 2 -5 9 3 23 -3 32
-13 13 -15 13 -21 3 -36 -13 -17 -14 -16 -25 3 -6 12 -18 29 -27 37 -8 9 -11
16 -5 16 6 0 11 5 11 11 0 6 -7 9 -15 5 -11 -4 -15 1 -15 17 0 31 -27 67 -50
67 -10 0 -27 14 -37 30 -9 17 -22 30 -28 30 -5 0 -3 4 5 10 12 8 12 11 -3 28
-9 10 -17 25 -17 32 0 18 4 13 73 -80z m137 48 c0 -6 -7 -5 -15 2 -8 7 -15 17
-15 22 0 6 7 5 15 -2 8 -7 15 -17 15 -22z m70 -38 c0 -5 -4 -10 -10 -10 -5 0
-10 5 -10 10 0 6 5 10 10 10 6 0 10 -4 10 -10z m50 -30 c14 -11 31 -20 38 -20
6 0 12 -4 12 -9 0 -5 13 -12 30 -16 17 -4 32 -15 36 -27 5 -17 8 -18 16 -7 8
11 8 10 4 -4 -3 -10 -6 -21 -6 -23 0 -2 -7 -4 -16 -4 -8 0 -12 5 -9 11 4 6 1
9 -6 8 -8 -1 -22 1 -32 6 -15 6 -15 10 -5 23 11 13 10 15 -3 10 -16 -6 -69 22
-72 38 -1 5 -6 10 -12 10 -5 1 -14 2 -18 3 -10 1 1 21 11 21 4 0 18 -9 32 -20z
m154 -126 c3 -8 2 -12 -4 -9 -6 3 -10 10 -10 16 0 14 7 11 14 -7z m190 -41 c4
-5 11 -8 14 -9 4 0 16 -4 26 -9 18 -8 18 -8 0 -22 -17 -13 -15 -13 21 -8 30 5
52 1 90 -16 28 -12 55 -23 60 -23 12 -1 34 -61 34 -94 1 -18 -4 -23 -21 -20
-13 2 -25 5 -28 8 -3 3 -24 14 -47 24 -44 20 -53 30 -30 39 6 3 -10 6 -36 6
-51 1 -83 21 -74 45 3 8 0 17 -8 20 -9 3 -12 0 -8 -10 3 -7 0 -14 -6 -14 -7 0
-10 18 -9 45 1 44 7 53 22 38z m-424 -37 c0 -2 -7 -7 -16 -10 -8 -3 -12 -2 -9
4 6 10 25 14 25 6z m749 -254 c34 -17 60 -46 50 -56 -16 -17 -389 80 -404 104
-9 14 -18 98 -12 113 5 13 115 -35 366 -161z m-46 76 c10 -16 15 -28 13 -28
-11 0 -36 33 -36 47 0 9 1 14 3 12 2 -2 11 -16 20 -31z"/>
<path d="M804 4790 c3 -14 6 -28 6 -32 0 -5 5 -8 10 -8 15 0 12 22 -7 45 -15
20 -15 19 -9 -5z"/>
<path d="M1230 4865 c0 -8 5 -15 10 -15 6 0 10 7 10 15 0 8 -4 15 -10 15 -5 0
-10 -7 -10 -15z"/>
<path d="M990 4365 c0 -8 4 -15 10 -15 5 0 7 7 4 15 -4 8 -8 15 -10 15 -2 0
-4 -7 -4 -15z"/>
<path d="M1730 3889 c0 -5 5 -7 10 -4 6 3 10 8 10 11 0 2 -4 4 -10 4 -5 0 -10
-5 -10 -11z"/>
<path d="M2100 3730 c0 -5 5 -10 10 -10 6 0 10 5 10 10 0 6 -4 10 -10 10 -5 0
-10 -4 -10 -10z"/>
<path d="M1150 4156 c0 -9 5 -16 10 -16 6 0 10 4 10 9 0 6 -4 13 -10 16 -5 3
-10 -1 -10 -9z"/>
<path d="M1357 3884 c3 -7 9 -14 14 -14 14 0 10 17 -5 23 -10 4 -13 1 -9 -9z"/>
<path d="M2105 3640 c3 -5 11 -10 16 -10 17 0 37 -25 45 -54 3 -14 10 -23 15
-20 5 3 9 -2 9 -11 0 -9 5 -13 10 -10 17 10 11 33 -10 40 -11 3 -20 14 -20 23
0 10 -9 25 -20 35 -22 18 -55 24 -45 7z"/>
<path d="M1956 7321 c-21 -22 -37 -44 -35 -50 3 -7 26 11 54 39 29 29 43 50
34 50 -8 0 -32 -18 -53 -39z"/>
<path d="M2774 7348 c-4 -6 -21 -36 -37 -66 -16 -30 -41 -75 -57 -101 -16 -25
-27 -48 -24 -50 10 -10 55 46 90 113 20 39 46 81 57 94 l20 22 -21 0 c-11 0
-24 -5 -28 -12z"/>
<path d="M2878 7348 c-7 -19 2 -38 18 -38 7 0 16 -11 20 -25 7 -28 40 -41 73
-30 22 7 24 -1 12 -44 l-6 -24 -32 27 c-44 37 -97 35 -152 -4 -88 -64 -186
-170 -156 -170 2 0 39 34 81 75 115 111 167 129 218 76 32 -33 29 -37 -54 -60
-67 -19 -183 -60 -200 -71 -30 -18 0 -21 57 -5 137 39 229 68 241 78 7 6 11
17 10 26 -3 12 47 35 217 99 281 107 268 101 228 101 -24 1 -257 -82 -410
-146 -8 -3 -10 8 -6 37 l6 42 -47 -7 c-44 -7 -46 -6 -46 18 0 36 -61 74 -72
45z"/>
<path d="M3694 7312 c-161 -107 -213 -144 -261 -192 -28 -28 -55 -50 -60 -50
-29 0 -225 -221 -203 -228 7 -3 24 11 38 29 50 65 155 169 171 169 10 0 -5
-20 -36 -48 -74 -66 -66 -84 9 -23 53 43 64 49 78 37 24 -21 68 -25 124 -10
58 16 212 19 221 5 3 -5 -5 -17 -17 -25 -20 -14 -24 -14 -39 0 -16 14 -22 13
-74 -11 -44 -21 -63 -38 -83 -72 -15 -25 -38 -62 -50 -81 -23 -34 -25 -63 -8
-102 4 -10 -28 -57 -92 -136 -54 -67 -108 -134 -119 -149 l-20 -28 4 30 c7 42
-30 111 -62 119 -14 3 -25 11 -25 16 0 6 16 43 36 84 35 71 36 74 20 99 -20
30 -36 31 -112 4 -101 -35 -97 -34 -87 -13 34 66 14 122 -51 144 -80 26 -292
-41 -459 -147 -21 -13 -41 -23 -43 -20 -3 3 79 65 116 87 8 5 11 12 7 17 -11
10 -87 -33 -151 -87 -29 -25 -76 -63 -102 -85 -58 -48 -143 -123 -204 -181
-48 -47 -63 -50 -36 -8 33 49 8 35 -31 -18 -47 -64 -162 -247 -191 -303 -26
-51 -39 -115 -23 -115 6 0 11 5 11 11 0 25 80 178 123 234 87 115 419 420 445
410 7 -3 68 24 135 59 144 75 269 117 350 118 50 1 62 -2 85 -25 l26 -26 -24
-53 c-13 -29 -33 -63 -44 -75 -26 -31 -17 -29 70 12 80 38 157 55 168 36 7
-11 -55 -141 -83 -174 -14 -16 -13 -18 7 -24 12 -3 22 -7 22 -10 0 -3 -20 -28
-44 -56 -54 -64 -240 -299 -338 -428 -40 -53 -93 -111 -117 -130 -48 -37 -234
-217 -269 -261 -43 -55 -75 -109 -67 -116 4 -4 15 4 24 17 56 84 216 251 241
251 10 0 47 16 82 36 135 77 200 106 224 100 13 -4 24 -2 24 3 0 5 46 66 103
137 56 70 115 143 130 163 15 20 52 61 81 91 64 67 306 359 306 370 0 4 -9 19
-20 33 -11 14 -20 28 -20 32 0 4 21 40 46 81 46 74 93 114 134 114 19 0 21 -4
16 -25 -5 -18 -2 -25 9 -25 8 0 15 4 15 8 0 5 54 48 120 96 111 81 133 106 94
106 -22 0 -115 -40 -137 -59 -14 -12 -37 -15 -92 -12 -43 1 -108 -5 -160 -15
-83 -18 -88 -18 -100 -1 -7 10 -12 32 -10 50 2 25 12 40 51 70 70 54 220 156
279 189 48 26 49 28 20 28 -19 0 -56 -18 -101 -48z m-460 -847 c10 -38 -20
-96 -71 -140 -26 -22 -67 -59 -91 -82 -23 -23 -66 -59 -95 -81 -29 -22 -65
-52 -81 -66 -16 -14 -31 -26 -33 -26 -7 0 34 54 66 89 17 18 29 33 28 34 -8 9
248 297 263 297 4 0 11 -11 14 -25z m-95 -230 c-23 -30 -45 -55 -50 -55 -5 0
-9 -5 -9 -11 0 -7 -17 -31 -37 -54 -21 -24 -55 -66 -76 -93 -26 -35 -47 -53
-69 -57 -17 -4 -56 -21 -87 -37 -31 -17 -69 -37 -86 -46 -16 -8 -38 -22 -48
-30 -16 -14 -17 -14 -12 0 3 8 20 25 38 38 18 13 82 67 142 120 101 88 179
150 187 150 2 0 35 29 73 65 38 36 70 65 72 65 2 0 -15 -25 -38 -55z"/>
<path d="M4148 7328 c-32 -44 -80 -128 -73 -128 8 0 97 67 129 96 6 5 29 22
51 37 34 23 36 27 17 27 -13 0 -41 -14 -63 -32 -43 -35 -60 -34 -29 2 24 27
24 30 6 30 -7 0 -25 -15 -38 -32z"/>
<path d="M2570 7055 c-48 -35 -201 -194 -300 -310 -37 -44 -111 -166 -108
-177 2 -5 41 42 88 104 87 116 320 363 352 374 18 5 26 34 10 34 -4 0 -23 -11
-42 -25z"/>
<path d="M5458 6925 c-89 -39 -207 -104 -278 -155 -109 -78 -140 -94 -180 -92
-66 4 -389 -71 -492 -114 l-57 -24 -83 20 c-132 30 -240 42 -274 30 -37 -14
-104 -80 -257 -250 -67 -74 -135 -149 -152 -166 -76 -79 -84 -92 -18 -33 39
35 104 100 144 144 104 115 239 245 274 262 26 14 44 14 140 4 60 -7 164 -24
230 -37 66 -14 136 -27 155 -30 l35 -4 -30 14 c-16 9 -45 18 -62 22 -18 3 -33
9 -33 13 0 11 210 77 315 101 50 11 106 24 125 30 64 19 62 10 -20 -66 -72
-68 -110 -114 -96 -114 3 0 38 30 78 66 126 114 436 303 563 344 22 7 44 16
50 21 12 12 65 12 65 0 0 -5 10 -13 23 -17 12 -4 37 -20 55 -35 18 -16 54 -40
80 -54 26 -14 88 -52 137 -85 50 -33 105 -69 123 -81 39 -25 41 -42 5 -37 -22
2 -32 -5 -61 -47 -20 -27 -44 -70 -53 -95 -10 -25 -21 -44 -26 -44 -4 1 -23 4
-41 8 l-33 6 -60 -123 c-32 -67 -59 -127 -59 -134 0 -33 -24 -17 -72 49 -46
63 -126 162 -264 326 -19 23 -41 42 -49 42 -7 0 -15 5 -17 11 -2 6 -17 9 -33
7 l-30 -4 25 -12 c23 -11 20 -12 -23 -8 -57 4 -104 -11 -110 -36 -4 -12 -15
-18 -36 -18 -17 0 -31 -3 -31 -8 0 -4 -10 -12 -22 -17 -13 -6 -22 -16 -20 -23
1 -7 -8 -12 -21 -12 -20 0 -71 -27 -57 -30 3 -1 46 -3 95 -5 139 -4 270 -54
435 -163 94 -62 200 -159 200 -183 0 -11 26 -64 58 -117 60 -99 109 -193 227
-432 70 -141 89 -170 112 -170 7 0 13 -9 13 -20 0 -11 4 -20 8 -20 11 0 34
-163 39 -273 2 -49 -1 -121 -7 -160 -6 -40 -14 -92 -16 -117 -3 -25 -10 -63
-15 -85 -6 -22 -11 -45 -11 -52 -1 -6 -8 -8 -17 -5 -13 5 -14 3 -3 -10 9 -11
10 -23 3 -39 -5 -13 -14 -43 -20 -67 -8 -27 -16 -40 -23 -36 -8 5 -9 1 -5 -10
7 -18 -31 -96 -46 -96 -4 0 -28 9 -53 20 -24 11 -57 23 -73 26 -29 6 -91 77
-78 90 5 5 37 0 140 -25 30 -7 39 -6 44 5 8 22 0 25 -64 29 -140 9 -144 10
-192 78 -200 285 -208 302 -359 747 -25 74 -47 130 -49 125 -10 -30 180 -553
280 -772 35 -78 62 -144 60 -147 -3 -2 -39 -2 -81 1 -68 5 -81 9 -109 36 -18
17 -33 37 -33 45 0 8 -6 12 -12 10 -7 -3 -28 13 -47 34 -18 21 -28 38 -22 38
6 0 11 5 11 10 0 6 -11 10 -24 10 -25 0 -43 16 -32 28 4 3 16 1 26 -6 25 -15
25 -10 -1 30 -12 19 -18 24 -15 12 5 -16 2 -20 -14 -19 -28 2 -33 10 -15 25 8
7 15 17 15 23 0 6 -6 3 -13 -7 -12 -16 -16 -17 -35 -5 -12 8 -22 24 -22 37 0
13 4 20 10 17 6 -3 10 -13 10 -21 0 -8 5 -14 10 -14 15 0 12 11 -7 32 -9 11
-11 18 -5 18 7 0 12 5 12 12 0 6 -9 3 -20 -7 -11 -10 -20 -25 -20 -34 0 -14
-2 -14 -10 -1 -15 24 -12 36 15 50 28 15 34 40 10 40 -8 0 -24 -5 -34 -12 -25
-15 -47 2 -56 43 -4 16 -11 29 -16 29 -5 0 -3 11 3 25 9 20 9 28 -1 38 -11 10
-12 8 -7 -10 4 -12 3 -24 -2 -27 -5 -3 -12 7 -15 22 -3 15 -9 35 -12 45 -4 9
-3 17 3 17 6 0 13 -8 15 -17 4 -17 5 -17 6 0 0 9 5 17 10 17 5 0 1 16 -7 35
-9 19 -22 35 -28 35 -7 0 -15 21 -19 48 -3 26 -13 58 -21 72 -11 19 -14 20
-10 5 10 -40 17 -91 20 -150 2 -33 20 -109 39 -170 l35 -110 -26 -22 c-15 -12
-30 -22 -34 -23 -4 0 -24 -11 -44 -25 -20 -14 -42 -25 -49 -25 -35 0 -210 320
-223 406 -13 87 15 553 43 717 2 15 1 27 -3 27 -23 0 -63 -448 -65 -737 -2
-122 -6 -225 -10 -229 -4 -4 -7 1 -8 12 -1 15 -3 13 -9 -6 -11 -34 -11 -60 0
-35 8 19 9 19 9 -2 1 -13 6 -23 11 -23 6 0 10 -8 10 -17 0 -14 -2 -15 -9 -5
-6 10 -10 8 -14 -9 -7 -28 1 -39 13 -19 6 10 9 -9 8 -55 0 -49 -3 -63 -9 -45
-4 14 -17 56 -29 94 -11 38 -19 75 -16 82 3 8 2 14 -3 14 -11 0 -31 79 -24 96
3 8 0 21 -7 29 -7 8 -16 29 -20 47 -4 18 -11 41 -15 51 -5 12 -2 17 8 17 14 0
15 5 1 48 -8 26 -18 63 -21 82 -6 33 -7 34 -14 10 l-7 -25 -1 28 c-1 15 -8 38
-16 50 -8 13 -14 38 -14 57 0 19 -13 103 -31 185 -35 170 -70 406 -70 476 0
26 -4 51 -10 54 -14 8 -13 -27 5 -175 50 -423 127 -795 254 -1225 23 -77 47
-150 53 -162 14 -28 13 -29 -34 -36 -42 -6 -52 7 -13 17 14 4 25 11 25 16 0 5
-21 3 -46 -5 -34 -10 -46 -10 -49 -2 -7 26 -25 158 -25 189 0 18 -5 40 -11 48
-8 11 -9 -3 -5 -50 20 -209 20 -210 3 -210 -14 0 -15 -5 -7 -26 16 -42 13 -46
-34 -43 -24 2 -42 1 -40 -3 5 -8 73 -23 90 -20 14 3 30 -37 39 -93 8 -51 50
-247 76 -350 29 -114 124 -394 158 -464 31 -64 30 -81 -3 -54 -12 9 -2 -3 22
-26 23 -24 51 -60 62 -81 11 -21 25 -42 31 -46 8 -4 8 -1 1 12 -10 19 -73 155
-97 209 -86 196 -156 421 -189 610 -8 44 -17 94 -21 110 -5 22 7 9 44 -48 29
-42 49 -81 46 -87 -3 -5 0 -7 8 -4 16 6 30 -27 27 -61 -1 -16 1 -17 11 -8 10
10 22 1 60 -40 27 -29 49 -55 49 -59 0 -5 7 -8 15 -8 7 0 18 -6 22 -13 9 -14
97 -87 105 -87 2 0 -22 53 -54 118 -69 140 -85 186 -70 204 6 7 48 32 94 56
62 32 103 46 154 52 67 8 89 6 68 -8 -16 -11 -44 -55 -44 -70 0 -9 11 -13 33
-11 57 4 77 -1 77 -16 0 -20 -58 -55 -92 -55 -15 0 -30 -6 -35 -12 -4 -7 -10
-73 -13 -147 l-5 -134 -60 -22 c-94 -35 -138 -56 -131 -62 3 -3 43 6 88 21 46
14 109 31 141 37 31 6 57 15 57 20 0 5 -4 9 -10 9 -5 0 -10 9 -10 20 0 11 4
20 9 20 5 0 11 8 14 19 2 10 17 21 33 25 16 4 32 13 36 19 4 6 26 12 49 12 31
1 47 7 60 24 13 16 19 19 19 8 0 -8 9 -17 21 -20 37 -10 16 -31 -81 -79 -52
-26 -91 -47 -86 -47 45 -4 266 96 249 112 -3 4 19 34 50 66 77 80 77 104 2
199 -30 38 -62 73 -72 77 -27 12 25 22 118 24 63 1 81 -3 102 -19 40 -32 42
-54 10 -103 -42 -62 -46 -76 -20 -69 12 2 36 15 54 28 74 55 47 16 -74 -107
-150 -152 -316 -294 -473 -401 -156 -107 -200 -134 -259 -154 -97 -35 -11 -20
99 17 199 65 298 105 312 124 5 6 8 6 8 -2 0 -7 -6 -16 -14 -20 -8 -4 -30 -28
-49 -52 -46 -58 -162 -158 -269 -232 -49 -33 -88 -62 -88 -64 0 -11 104 52
185 113 89 66 385 354 385 375 0 6 -12 -1 -27 -16 -58 -55 -370 -204 -389
-185 -2 3 13 16 34 29 47 31 171 118 191 135 276 219 391 325 524 484 l54 65
94 23 c52 12 105 23 119 23 33 1 -23 14 -101 24 l-57 6 38 89 c88 206 115 344
114 575 0 92 -5 169 -11 180 -6 11 -14 51 -18 89 l-8 69 69 -7 c137 -14 138
-14 161 -59 33 -65 93 -203 93 -215 0 -11 25 -15 217 -37 72 -9 152 -19 177
-24 25 -4 66 -6 93 -4 26 2 54 0 61 -5 10 -7 15 -51 19 -158 11 -293 -50 -697
-146 -964 -83 -232 -169 -392 -285 -530 -66 -79 -68 -82 -27 -50 72 56 156
180 246 366 47 95 85 179 85 187 0 9 5 17 11 19 6 2 12 17 14 33 2 26 30 142
65 275 5 19 12 59 16 87 3 29 10 50 15 47 4 -2 8 8 7 23 -3 52 26 367 32 345
3 -12 6 41 7 118 1 77 -1 141 -5 144 -4 2 -5 -21 -4 -52 5 -81 -4 -61 -12 24
l-6 72 61 4 c55 4 64 8 90 39 18 21 29 28 29 19 1 -8 6 -4 12 10 10 22 12 23
16 6 2 -10 -1 -29 -8 -41 -7 -13 -10 -29 -7 -37 3 -7 6 -3 6 10 1 12 6 22 12
22 8 0 10 14 6 39 -5 38 -2 43 49 90 41 38 54 57 54 78 0 22 -2 25 -10 13 -6
-9 -10 -10 -10 -3 0 29 23 65 75 115 l57 55 -25 54 c-14 30 -39 84 -56 122
-17 37 -31 70 -31 72 0 3 -18 42 -39 88 -21 45 -64 136 -95 201 -31 65 -59
117 -62 114 -4 -5 31 -86 227 -522 27 -60 48 -111 46 -112 -2 -2 -143 12 -187
19 -19 3 -17 -9 27 -116 19 -48 33 -90 31 -92 -2 -2 -33 0 -68 5 -36 5 -110
14 -165 20 -55 7 -167 23 -249 36 l-149 24 -24 -27 c-13 -16 -54 -67 -90 -115
-36 -49 -67 -88 -68 -88 -6 0 -104 209 -111 234 -6 25 13 71 44 107 9 11 26
34 37 52 66 109 67 110 95 37 8 -19 23 -51 35 -70 12 -19 27 -52 34 -72 14
-44 38 -68 46 -46 3 7 -24 72 -59 144 l-65 131 -128 18 c-70 9 -135 18 -143
20 -8 1 -31 33 -51 71 -19 38 -77 150 -129 249 -51 99 -119 230 -150 290 -31
61 -61 108 -66 105 -5 -3 -8 -7 -8 -10 1 -3 4 -14 8 -25 4 -14 -2 -30 -17 -48
-12 -16 -31 -43 -42 -62 -11 -18 -32 -53 -47 -78 -15 -24 -30 -59 -33 -78 -8
-45 -11 -46 -30 -9 -9 18 -13 35 -8 39 5 3 41 72 80 152 l71 147 39 -8 c21 -4
93 -22 161 -40 68 -17 126 -30 128 -27 3 2 -22 58 -55 123 -34 64 -60 119 -58
120 3 3 303 -64 532 -120 l191 -47 64 -125 c35 -69 70 -130 77 -136 7 -5 48
-18 90 -28 43 -10 91 -21 107 -25 21 -6 28 -5 24 5 -2 7 -35 21 -74 32 -156
41 -137 27 -199 146 -80 153 -76 149 -185 177 -52 13 -115 27 -140 30 -45 7
-266 61 -285 70 -26 13 142 -6 226 -25 164 -38 243 -63 394 -123 73 -29 356
-177 412 -215 63 -43 79 -50 67 -31 -14 24 -193 132 -319 194 -170 83 -340
146 -485 180 -63 15 -122 31 -131 35 -9 5 -79 14 -155 21 l-139 12 -51 43
c-107 90 -407 274 -446 274 -9 0 -18 7 -22 15 -8 23 -72 18 -138 -10z m583
-392 c11 -27 33 -75 50 -107 16 -33 28 -61 26 -62 -2 -2 -39 6 -82 16 -44 11
-88 20 -97 20 -10 0 -18 5 -18 11 0 18 82 169 91 169 6 0 19 -21 30 -47z
m-740 -34 c27 -19 29 -19 29 -3 0 16 1 16 15 -2 21 -28 19 -43 -7 -37 -13 3
-28 10 -35 15 -7 5 -17 7 -22 4 -14 -9 -91 5 -91 16 0 10 37 26 63 27 11 1 32
-8 48 -20z m95 -56 c-7 -7 -26 7 -26 19 0 6 6 6 15 -2 9 -7 13 -15 11 -17z
m-117 -19 c10 -9 -35 -3 -49 6 -11 8 -7 9 15 4 17 -4 32 -8 34 -10z m51 -13
c0 -18 -18 -21 -30 -6 -10 13 -9 15 9 15 11 0 21 -4 21 -9z m65 -31 c-3 -5
-10 -10 -16 -10 -5 0 -9 5 -9 10 0 6 7 10 16 10 8 0 12 -4 9 -10z m53 -6 c12
7 38 -22 29 -31 -4 -3 7 -16 23 -28 27 -20 28 -23 13 -29 -10 -4 -19 -2 -21 3
-2 6 -11 11 -20 12 -14 0 -13 2 3 9 20 8 20 9 -1 9 -31 1 -93 35 -72 39 11 2
15 9 11 20 -6 15 -4 15 10 4 9 -8 20 -11 25 -8z m113 -127 c12 -22 12 -22 -10
-3 -11 11 -21 23 -21 28 0 14 19 -1 31 -25z m568 -742 c-18 -32 -43 -69 -55
-83 l-24 -24 -10 26 c-5 15 -10 31 -10 36 0 12 121 113 127 107 2 -3 -10 -31
-28 -62z m-1572 -217 c-3 -8 -6 -5 -6 6 -1 11 2 17 5 13 3 -3 4 -12 1 -19z
m198 -248 c7 -21 114 -205 147 -252 7 -9 10 -19 8 -21 -29 -26 -146 -107 -155
-107 -19 0 -26 59 -31 260 -4 161 -3 182 9 165 8 -11 18 -31 22 -45z m394
-275 c21 -50 50 -114 65 -143 15 -30 26 -56 24 -58 -2 -1 -22 -6 -44 -10 -35
-5 -45 -2 -68 19 -29 28 -27 43 8 58 16 7 11 8 -20 3 -46 -6 -57 2 -118 79
l-38 48 28 22 c50 40 109 77 118 74 5 -2 25 -43 45 -92z m61 -3 c29 -35 82
-91 117 -125 71 -68 70 -75 -18 -76 l-47 -1 -32 67 c-31 64 -90 203 -90 213 0
2 4 0 8 -5 5 -6 32 -38 62 -73z m-219 -84 c27 -29 48 -56 49 -59 0 -3 -21 -16
-47 -29 -27 -13 -83 -45 -125 -71 -43 -26 -80 -44 -82 -40 -3 4 -11 26 -19 49
-13 38 -13 42 5 59 11 10 25 27 30 38 10 19 10 19 -8 4 -35 -29 -44 -31 -44
-10 0 12 18 31 53 53 81 51 83 53 60 26 -32 -34 -29 -47 5 -16 24 23 60 47 71
48 2 0 26 -24 52 -52z m689 -123 c0 -3 -6 -5 -14 -5 -12 0 -86 128 -86 147 0
4 23 -26 50 -65 28 -39 50 -74 50 -77z m-584 11 c29 -26 27 -28 -31 -46 -38
-12 -61 -21 -162 -65 -24 -10 -43 -22 -43 -27 0 -11 -2 -11 65 12 32 11 62 20
67 20 5 0 -26 -33 -69 -74 l-78 -74 -14 37 c-7 20 -13 42 -14 49 0 6 -4 12 -9
12 -4 0 -8 8 -8 18 0 17 158 132 183 132 7 0 21 7 31 15 28 21 53 19 82 -9z
m-356 -65 c14 -38 18 -57 10 -65 -5 -5 -10 -16 -10 -24 0 -12 3 -12 15 -2 13
10 19 3 44 -51 26 -57 27 -66 15 -86 -20 -32 -17 -39 6 -18 19 17 20 17 26 0
8 -20 -35 -107 -50 -102 -15 5 -123 166 -156 233 -16 34 -29 72 -28 85 1 13
-2 34 -6 47 -7 20 -4 22 36 22 24 0 50 4 58 10 18 11 14 15 40 -49z m-157 29
c3 -11 2 -20 -3 -20 -4 0 -10 9 -13 20 -3 11 -2 20 3 20 4 0 10 -9 13 -20z
m1145 -41 c12 -19 11 -19 -7 -10 -26 14 -36 31 -19 31 7 0 19 -9 26 -21z
m-788 -137 c0 -12 -63 -92 -72 -92 -20 0 -4 36 30 66 41 37 42 37 42 26z m-20
-274 c25 -56 47 -106 49 -112 5 -16 -95 82 -132 128 l-31 39 30 23 c16 13 31
24 34 24 3 0 26 -46 50 -102z"/>
<path d="M4281 6468 c-5 -14 -15 -44 -21 -67 -11 -40 -12 -41 -55 -41 -50 0
-79 -22 -71 -54 8 -32 -45 -77 -56 -47 -1 5 -16 -1 -32 -14 -25 -20 -28 -26
-16 -40 7 -8 9 -19 5 -23 -4 -4 -12 0 -18 9 -9 15 -13 13 -35 -13 -18 -22 -22
-32 -13 -37 9 -6 8 -11 -4 -21 -12 -10 -15 -10 -15 1 0 8 -16 -4 -34 -26 -19
-22 -32 -44 -29 -48 6 -10 -26 -47 -41 -47 -7 0 -25 -22 -41 -50 -16 -27 -33
-50 -37 -50 -4 0 -8 -6 -8 -12 -1 -7 -14 -29 -30 -48 -17 -19 -30 -38 -30 -43
0 -9 -36 -57 -110 -147 -84 -102 -171 -220 -163 -220 5 0 20 14 33 30 14 17
30 36 36 43 6 7 33 40 60 72 104 130 331 360 445 452 103 84 201 154 206 149
3 -3 -6 -65 -21 -138 -77 -389 -117 -753 -117 -1067 0 -156 -4 -209 -14 -225
-8 -12 -30 -75 -49 -141 -25 -86 -35 -110 -35 -85 -1 48 26 288 44 386 21 115
16 157 -5 49 -35 -173 -69 -477 -70 -627 0 -23 -5 -28 -23 -28 -13 0 -31 6
-40 13 -22 16 -56 171 -63 292 -7 109 -11 127 -25 103 -14 -25 -29 -22 -29 4
0 12 3 19 6 15 4 -3 13 1 22 9 11 11 18 48 24 122 10 132 20 190 64 365 35
139 118 379 155 443 23 41 25 67 3 39 -24 -30 -62 -118 -104 -240 -78 -225
-115 -371 -131 -513 -6 -53 -15 -104 -20 -115 -6 -10 -7 -28 -4 -40 5 -16 4
-18 -3 -8 -7 10 -13 -2 -22 -45 -7 -32 -19 -81 -27 -107 -20 -63 -11 -71 13
-13 11 25 22 46 26 46 8 0 0 -27 -12 -45 -4 -5 -17 -40 -30 -77 -13 -37 -27
-65 -31 -63 -4 3 -9 -8 -12 -23 -9 -49 -50 -182 -55 -178 -6 6 16 238 29 311
7 33 25 116 41 184 30 128 32 175 3 74 -41 -142 -78 -352 -91 -520 -5 -71 -11
-96 -25 -109 -11 -9 -19 -24 -19 -32 0 -9 6 -7 19 9 l18 23 7 -70 c12 -124 37
-308 46 -343 10 -39 0 -65 -32 -82 -18 -10 -24 -8 -40 12 -53 65 -155 271
-165 334 -3 19 -10 35 -14 35 -5 0 -9 -3 -9 -6 0 -14 24 -100 30 -109 4 -5 20
-48 34 -94 15 -47 34 -94 42 -105 8 -11 14 -36 15 -56 1 -31 2 -32 8 -10 5 17
9 21 14 13 5 -7 1 -27 -7 -45 -22 -51 -26 -101 -11 -155 10 -37 13 -42 14 -20
1 16 -3 36 -8 45 -4 9 -5 40 -1 67 5 35 8 41 9 20 10 -181 54 -385 107 -503
20 -44 28 -52 44 -47 17 5 20 2 20 -20 0 -15 -4 -24 -10 -20 -5 3 -10 1 -10
-4 0 -6 5 -11 10 -11 6 0 13 0 18 0 4 -1 10 16 13 37 3 21 16 81 28 134 18 79
20 104 11 150 -14 74 -40 161 -52 177 -25 29 12 8 47 -28 21 -22 40 -38 43
-36 2 2 -14 37 -35 78 -87 169 -84 185 13 63 12 -16 26 -26 30 -22 4 4 1 38
-6 75 -9 52 -10 74 -1 90 14 25 67 67 99 77 21 6 22 4 16 -22 -13 -47 -10 -68
6 -64 70 19 86 -10 26 -49 l-38 -25 6 -66 c3 -37 14 -90 23 -119 13 -40 14
-55 5 -58 -7 -2 -12 -8 -12 -14 0 -7 14 -8 36 -5 28 5 35 3 30 -8 -3 -8 2 -38
11 -67 l16 -53 13 75 c15 83 38 134 70 155 12 8 39 48 59 90 29 59 36 83 32
110 -5 32 -58 121 -81 137 -6 4 -18 12 -26 17 -8 6 -12 13 -8 16 9 9 106 -31
144 -60 42 -32 44 -21 4 24 -17 18 -30 37 -30 41 0 5 -15 17 -32 29 -18 11
-27 21 -19 21 30 0 -10 27 -69 46 -67 21 -77 34 -27 35 17 0 41 4 52 9 20 9
17 9 -95 14 -21 1 -26 7 -28 34 -3 30 -1 32 20 28 13 -3 49 -8 82 -11 46 -5
57 -4 54 7 -4 12 -59 24 -135 30 -32 2 -33 4 -33 45 0 42 1 43 28 37 32 -7 75
-22 117 -41 24 -10 34 -24 43 -58 26 -98 176 -444 187 -433 3 3 -16 54 -41
114 -59 139 -113 288 -124 339 -5 22 -17 74 -28 115 -11 41 -30 157 -42 257
-20 165 -22 212 -17 500 8 468 49 768 175 1283 l38 155 30 -3 c41 -4 373 -84
408 -98 13 -5 17 -4 13 3 -15 24 -307 115 -414 129 -50 6 -53 5 -62 -18z
m-119 -260 c-6 -6 -7 0 -4 19 5 21 7 23 10 9 2 -10 0 -22 -6 -28z m55 36 c-3
-3 -12 -4 -19 -1 -8 3 -5 6 6 6 11 1 17 -2 13 -5z m-142 -14 c3 -6 -1 -7 -10
-4 -11 5 -14 2 -9 -10 3 -9 2 -16 -4 -16 -15 0 -23 28 -9 34 19 7 25 7 32 -4z
m62 -25 c0 -8 -6 -15 -13 -15 -7 0 -20 -10 -28 -22 -12 -17 -16 -19 -16 -6 0
12 38 51 56 58 0 0 1 -7 1 -15z m-123 -31 c3 -8 2 -12 -4 -9 -6 3 -10 10 -10
16 0 14 7 11 14 -7z m32 -62 c-8 -9 -18 -13 -22 -10 -8 9 19 37 29 31 5 -3 2
-12 -7 -21z m-76 -62 c0 -5 -5 -10 -11 -10 -5 0 -7 5 -4 10 3 6 8 10 11 10 2
0 4 -4 4 -10z m139 -1720 c7 -36 14 -73 16 -82 2 -11 -2 -15 -11 -11 -8 3 -14
9 -14 13 0 4 -16 10 -36 13 -19 3 -49 12 -65 19 -27 12 -29 17 -29 64 0 28 8
78 19 110 10 33 28 93 41 134 12 41 25 82 28 90 3 8 13 -52 22 -135 9 -82 23
-179 29 -215z m-293 110 c9 -41 18 -85 21 -97 5 -21 2 -23 -43 -23 -27 -1 -66
-7 -87 -15 -34 -12 -38 -11 -32 2 3 9 17 49 30 89 14 41 29 82 34 92 5 9 17
40 27 67 l18 50 8 -45 c5 -25 16 -79 24 -120z m-12 -148 c48 -17 50 -19 73
-87 18 -53 20 -71 10 -77 -8 -5 -7 -8 5 -8 14 0 48 -45 48 -63 0 -3 -22 -7
-49 -9 -65 -6 -126 -38 -188 -99 l-52 -50 -8 28 c-12 47 -9 245 5 289 10 35
19 45 52 58 22 9 40 20 40 26 0 14 7 13 64 -8z m109 -33 c22 -10 26 -21 36
-97 11 -85 8 -120 -5 -66 -4 16 -10 31 -14 34 -8 6 -50 116 -50 130 0 13 4 12
33 -1z m170 -29 c5 -4 -3 -5 -17 -3 -15 3 -29 10 -32 15 -7 11 36 1 49 -12z
m-378 -352 c-18 -37 -36 -64 -39 -61 -11 11 -6 69 7 85 13 16 59 49 63 45 2
-1 -12 -32 -31 -69z m-5 -224 c30 -70 25 -73 -30 -19 -27 27 -50 53 -50 57 0
4 13 8 30 8 25 0 32 -6 50 -46z m-104 -54 c6 -23 7 -24 14 -5 12 28 12 43 0
25 -7 -12 -10 -8 -10 15 l0 29 22 -21 c17 -18 19 -25 9 -37 -8 -10 -9 -16 -1
-21 5 -3 13 1 16 10 5 12 12 5 25 -25 23 -51 23 -51 2 -43 -17 6 -17 6 0 -11
13 -13 16 -27 12 -50 -6 -30 -5 -31 8 -7 12 20 15 21 20 6 11 -27 8 -110 -4
-122 -8 -8 -8 -21 1 -47 11 -34 7 -146 -6 -167 -8 -14 -40 23 -53 61 -32 97
-58 213 -55 240 2 16 -1 30 -7 30 -7 0 -8 26 -5 73 3 53 2 61 -4 32 -6 -32 -7
-26 -4 30 4 81 5 89 11 55 2 -14 6 -36 9 -50z m481 -75 c-44 -40 -87 -65 -87
-50 0 25 32 75 52 79 53 12 63 14 73 15 6 0 -12 -19 -38 -44z"/>
<path d="M3665 3190 c3 -5 8 -10 11 -10 2 0 4 5 4 10 0 6 -5 10 -11 10 -5 0
-7 -4 -4 -10z"/>
<path d="M6190 6466 c0 -17 17 -30 22 -17 4 13 143 -16 397 -85 69 -19 126
-32 128 -30 14 14 -79 40 -420 121 -127 29 -127 29 -127 11z"/>
<path d="M6215 6400 c3 -5 8 -10 11 -10 2 0 4 5 4 10 0 6 -5 10 -11 10 -5 0
-7 -4 -4 -10z"/>
<path d="M7505 6390 c-3 -5 -1 -10 4 -10 6 0 11 5 11 10 0 6 -2 10 -4 10 -3 0
-8 -4 -11 -10z"/>
<path d="M6230 6373 c0 -7 11 -37 24 -67 13 -30 22 -57 20 -59 -3 -3 -22 -1
-42 4 -119 29 -194 41 -202 33 -9 -9 64 -172 100 -224 10 -14 40 -74 67 -135
27 -60 61 -129 76 -151 24 -38 31 -43 79 -49 29 -4 78 -13 109 -21 31 -8 67
-14 80 -14 47 1 -7 20 -126 44 -64 14 -118 26 -119 28 -7 9 -106 217 -106 222
0 4 -5 12 -10 19 -16 19 -130 250 -126 254 2 3 54 -6 116 -18 76 -15 114 -19
121 -12 7 7 3 27 -12 64 -25 60 -49 100 -49 82z"/>
<path d="M6740 6316 c0 -11 40 -86 45 -86 3 0 -4 19 -16 43 -23 45 -29 54 -29
43z"/>
<path d="M4092 6291 c-11 -7 -10 -10 3 -15 23 -9 25 -8 25 9 0 17 -9 19 -28 6z"/>
<path d="M6791 6215 c0 -5 6 -21 14 -35 8 -14 14 -20 14 -15 0 6 -6 21 -14 35
-8 14 -14 21 -14 15z"/>
<path d="M6504 6156 c-35 -16 -44 -37 -44 -117 0 -75 37 -147 120 -229 111
-112 232 -160 310 -125 41 19 60 55 60 115 0 31 -55 150 -70 150 -15 0 -13 -4
20 -67 18 -33 30 -71 30 -93 0 -46 -32 -90 -65 -90 -21 0 -24 4 -19 28 12 62
-57 147 -179 220 -66 40 -133 53 -143 28 -3 -9 -10 -16 -14 -16 -14 0 -30 61
-30 111 0 39 4 51 23 63 48 31 100 24 181 -25 76 -46 96 -47 39 -2 -80 63
-150 79 -219 49z"/>
<path d="M7370 6126 c0 -8 145 -144 149 -140 3 3 -27 36 -67 74 -64 63 -82 78
-82 66z"/>
<path d="M6885 6075 c17 -8 37 -14 45 -15 8 0 44 -9 79 -20 66 -21 85 -20 60
5 -14 14 -150 46 -191 44 -21 -1 -20 -2 7 -14z"/>
<path d="M3537 6042 c-10 -10 -17 -22 -17 -27 0 -4 9 2 20 15 11 13 20 25 20
27 0 7 -8 2 -23 -15z"/>
<path d="M3468 5989 c-10 -5 -18 -14 -18 -19 0 -14 28 -1 34 16 6 16 6 16 -16
3z"/>
<path d="M3415 5945 c-11 -8 -38 -28 -60 -45 -22 -16 -44 -33 -50 -37 -5 -5
-28 -20 -50 -34 -22 -14 -69 -45 -105 -69 -36 -24 -92 -61 -125 -83 -73 -49
-70 -46 -63 -53 7 -6 164 96 295 191 45 33 105 76 132 95 28 19 50 38 51 43 0
10 -3 9 -25 -8z"/>
<path d="M7110 5937 c0 -12 42 -98 47 -93 2 2 -7 26 -21 53 -14 26 -25 45 -26
40z"/>
<path d="M7211 5715 c0 -5 6 -21 14 -35 8 -14 14 -20 14 -15 0 6 -6 21 -14 35
-8 14 -14 21 -14 15z"/>
<path d="M6570 5696 c0 -5 8 -20 19 -34 26 -38 76 -139 91 -187 7 -22 19 -49
28 -60 30 -42 3 44 -47 148 -42 87 -91 158 -91 133z"/>
<path d="M7255 5603 c25 -60 26 -60 -88 -38 -93 18 -87 17 -87 5 0 -5 10 -10
23 -10 12 0 59 -8 104 -17 45 -9 85 -14 88 -11 7 7 -32 88 -41 88 -3 0 -3 -8
1 -17z"/>
<path d="M2918 5603 c-10 -2 -18 -9 -18 -14 0 -6 10 -5 23 2 37 20 36 23 -5
12z"/>
<path d="M7090 5528 c0 -9 4 -19 9 -23 5 -3 12 -19 16 -35 4 -16 11 -32 15
-35 10 -6 -12 64 -29 93 -10 16 -10 16 -11 0z"/>
<path d="M4970 5413 c0 -4 5 -15 10 -23 8 -13 10 -13 10 2 0 9 -4 20 -10 23
-5 3 -10 3 -10 -2z"/>
<path d="M7140 5414 c0 -5 7 -19 15 -30 8 -10 15 -14 15 -8 0 5 -7 19 -15 30
-8 10 -15 14 -15 8z"/>
<path d="M4188 5350 c-17 -55 5 -442 32 -570 5 -25 12 -67 16 -95 23 -181 147
-595 171 -572 2 3 0 14 -5 24 -19 37 -72 201 -96 298 -63 254 -97 496 -105
745 -3 110 -9 184 -13 170z"/>
<path d="M3700 5309 c-84 -97 -149 -212 -219 -386 -72 -180 -112 -390 -110
-584 2 -170 16 -201 18 -39 1 74 6 178 11 230 29 275 174 628 324 790 20 22
33 40 29 40 -5 0 -29 -23 -53 -51z"/>
<path d="M6053 5255 c0 -33 2 -45 4 -27 2 18 2 45 0 60 -2 15 -4 0 -4 -33z"/>
<path d="M7330 5291 c0 -6 4 -13 10 -16 6 -3 7 1 4 9 -7 18 -14 21 -14 7z"/>
<path d="M2911 5163 c-259 -261 -489 -751 -531 -1133 -25 -224 19 -533 106
-738 48 -114 63 -129 25 -25 -18 49 -26 85 -20 88 5 4 33 0 62 -8 28 -9 87
-23 130 -32 42 -9 77 -21 77 -25 0 -15 42 -81 48 -76 2 3 -8 31 -23 63 -53
108 -70 174 -86 328 -32 295 87 799 275 1173 72 142 189 332 246 397 10 11 23
30 30 43 10 21 10 23 -7 14 -10 -6 -34 -26 -53 -46 -19 -19 -40 -36 -47 -36
-6 0 -22 -12 -35 -27 -13 -16 -40 -42 -61 -60 -20 -18 -32 -35 -27 -38 16 -10
1 -25 -17 -18 -13 5 -15 2 -9 -12 4 -11 2 -22 -6 -27 -21 -12 -28 -9 -21 10 3
9 -3 6 -13 -8 -10 -14 -24 -29 -31 -33 -18 -11 -16 -27 2 -27 8 0 15 -4 15
-10 0 -5 -13 -10 -30 -10 -21 0 -38 -9 -57 -31 -16 -18 -35 -39 -44 -48 -28
-29 -59 -79 -59 -95 0 -9 -7 -19 -15 -22 -8 -4 -15 -14 -15 -23 0 -12 -2 -13
-9 -3 -6 10 -12 7 -24 -12 -22 -32 -22 -33 8 -68 20 -23 25 -39 23 -76 l-2
-47 -3 45 c-3 38 -9 48 -37 66 l-32 22 -18 -22 c-10 -13 -16 -35 -15 -56 3
-42 -24 -108 -46 -116 -22 -9 -29 1 -16 23 10 17 10 17 11 -2 0 -13 7 -6 20
20 24 47 25 51 6 36 -11 -9 -15 -9 -19 1 -2 7 -2 0 0 -17 3 -21 1 -26 -5 -16
-8 11 -11 9 -17 -9 -5 -15 -10 -19 -15 -10 -5 9 -9 8 -13 -4 -3 -8 -2 -18 4
-22 6 -4 4 -15 -6 -30 -9 -14 -15 -30 -14 -37 1 -6 -2 -27 -6 -46 -12 -49 -24
-17 -18 47 3 28 9 52 14 52 5 0 6 6 3 13 -12 32 128 333 237 507 80 130 215
288 283 332 6 4 7 10 3 14 -4 4 -52 -38 -106 -93z m246 -39 c-3 -3 -12 -4 -19
-1 -8 3 -5 6 6 6 11 1 17 -2 13 -5z m-49 -56 c-6 -18 -28 -21 -28 -4 0 9 7 16
16 16 9 0 14 -5 12 -12z m-50 -38 c-7 -10 -14 -18 -15 -16 -6 6 9 36 18 36 5
0 4 -9 -3 -20z m8 -32 c-9 -13 -19 -31 -23 -40 -3 -10 -9 -18 -13 -18 -5 0
-16 -21 -26 -47 -10 -25 -20 -40 -22 -33 -4 10 -6 9 -14 -1 -8 -11 -9 -11 -5
1 2 8 9 14 14 13 11 -2 11 42 1 53 -16 15 -7 26 16 20 20 -5 25 -1 30 20 4 15
10 24 13 20 3 -3 12 3 20 14 8 11 17 20 20 20 3 0 -2 -10 -11 -22z m-105 -111
c-10 -9 -11 -8 -5 6 3 10 9 15 12 12 3 -3 0 -11 -7 -18z m-85 -46 c-8 -13 5
-72 14 -66 4 3 13 -2 20 -10 15 -18 5 -69 -11 -59 -8 5 -8 8 0 13 8 5 7 12 -2
25 -12 16 -13 15 -11 -10 1 -16 6 -38 10 -48 5 -14 4 -17 -4 -12 -7 4 -12 2
-12 -4 0 -6 -5 -8 -11 -4 -6 3 -9 18 -6 31 4 24 3 25 -29 20 l-34 -6 0 44 c0
45 14 60 48 49 12 -4 14 -3 4 4 -11 7 -10 12 3 26 18 17 30 22 21 7z m68 -56
c-4 -8 -8 -15 -10 -15 -2 0 -4 7 -4 15 0 8 4 15 10 15 5 0 7 -7 4 -15z m-144
-115 c0 -32 -14 -40 -24 -14 -5 14 8 44 20 44 2 0 4 -13 4 -30z m-82 -37 c-14
-17 -28 -16 -28 1 0 8 9 14 19 13 15 -1 17 -4 9 -14z m165 2 c-3 -9 -8 -14
-10 -11 -3 3 -2 9 2 15 9 16 15 13 8 -4z m-43 -6 c0 6 5 11 11 11 8 0 8 -4 0
-14 -7 -8 -9 -25 -5 -40 4 -16 2 -26 -5 -26 -6 0 -11 -13 -11 -30 0 -16 -5
-30 -11 -30 -7 0 -10 12 -7 30 3 17 1 30 -4 30 -4 0 -8 10 -7 23 l0 22 9 -22
c21 -53 24 -12 3 44 -6 16 -5 16 10 4 11 -9 17 -10 17 -2z m-195 -69 c-3 -5
-12 -10 -18 -10 -7 0 -6 4 3 10 19 12 23 12 15 0z m55 -72 c0 -4 -7 -8 -15 -8
-10 0 -15 10 -15 28 1 26 1 26 15 8 8 -11 15 -23 15 -28z m-50 -48 c0 -5 -5
-10 -10 -10 -6 0 -10 -6 -8 -12 2 -7 0 -14 -5 -15 -8 -3 -9 5 -1 30 6 18 24
24 24 7z m80 -65 c0 -13 5 -27 11 -31 8 -4 9 3 4 25 -4 20 -3 31 4 31 6 0 11
-6 11 -12 0 -9 4 -8 10 2 14 22 12 4 -4 -35 -8 -18 -11 -37 -8 -41 4 -4 1 -4
-5 0 -8 4 -13 2 -13 -5 0 -7 -2 -10 -5 -7 -10 9 -22 108 -13 102 4 -3 8 -16 8
-29z m-97 -3 c3 7 6 -5 6 -27 0 -37 -1 -39 -14 -21 -8 11 -15 24 -15 29 0 5
-6 4 -14 -3 -13 -10 -13 -8 -3 14 10 22 14 24 23 10 9 -12 13 -12 17 -2z m-93
-29 c-19 -63 -42 -124 -46 -120 -6 6 39 147 47 147 4 0 4 -12 -1 -27z m61 -34
c-5 -13 -10 -19 -10 -12 -1 15 10 45 15 40 3 -2 0 -15 -5 -28z m119 -2 c0 -19
-24 -67 -33 -67 -4 0 -3 -9 3 -19 6 -13 7 -28 1 -45 -6 -13 -8 -42 -5 -63 4
-26 3 -34 -4 -24 -6 8 -12 9 -16 3 -3 -6 -2 -13 4 -17 5 -3 10 -16 9 -28 0
-21 -1 -21 -10 -2 -7 16 -8 13 -4 -13 2 -17 0 -44 -6 -60 -6 -15 -12 -89 -14
-165 -2 -95 -7 -142 -15 -150 -10 -9 -12 -8 -7 5 3 9 1 19 -6 21 -8 2 -11 28
-10 80 2 74 -11 106 -20 50 -2 -16 -4 -7 -4 19 0 26 -5 54 -12 62 -8 9 -13 49
-14 100 -1 47 -5 78 -9 68 -5 -13 -7 -13 -7 -2 -1 26 13 40 29 30 24 -16 70
-12 70 5 0 8 -7 15 -15 15 -8 0 -17 11 -21 24 -8 33 -54 43 -55 12 0 -20 -1
-21 -8 -1 -5 11 -4 23 1 26 6 4 7 17 3 29 -5 15 -4 20 4 16 7 -5 11 5 11 29 0
20 4 34 10 30 5 -3 7 -12 3 -20 -6 -17 22 -21 32 -4 5 7 14 4 26 -7 18 -16 19
-16 13 -1 -3 9 0 30 7 47 11 23 20 30 41 30 16 0 28 -5 28 -13z m-250 -60 c0
-5 -4 -5 -10 -2 -5 3 -10 14 -10 23 0 15 2 15 10 2 5 -8 10 -19 10 -23z m-6
-64 c-4 -23 -3 -25 6 -13 10 13 11 13 7 0 -2 -8 -10 -14 -17 -12 -8 2 -10 -3
-6 -14 3 -9 1 -23 -5 -30 -6 -8 -9 -21 -5 -29 4 -11 2 -14 -6 -9 -8 5 -9 2 -5
-9 3 -9 1 -19 -4 -23 -6 -3 -9 -17 -6 -30 2 -13 0 -21 -4 -18 -12 7 -11 51 1
75 10 18 17 70 19 142 1 26 3 27 16 13 10 -10 14 -25 9 -43z m50 -135 c10
-161 52 -356 86 -403 4 -5 10 -20 13 -32 4 -19 1 -23 -18 -23 -13 0 -27 5 -30
10 -4 6 -28 9 -56 6 -43 -4 -49 -2 -49 15 0 24 -17 25 -23 2 -4 -15 -5 -14 -6
3 0 11 -6 25 -12 31 -26 26 -7 213 41 383 12 41 24 85 27 98 11 47 20 18 27
-90z m163 -220 c-3 -8 -6 -5 -6 6 -1 11 2 17 5 13 3 -3 4 -12 1 -19z m-120
-234 c-3 -3 -12 -4 -19 -1 -8 3 -5 6 6 6 11 1 17 -2 13 -5z m-87 -43 c0 -11 3
-12 8 -4 5 8 28 9 82 3 41 -5 77 -8 80 -8 20 1 29 -6 36 -29 4 -16 6 -32 5
-36 -3 -15 22 -87 31 -87 4 0 8 -4 8 -10 0 -5 -7 -10 -15 -10 -8 0 -15 -5 -15
-11 0 -6 -9 -8 -22 -4 -65 17 -98 29 -98 35 0 4 -11 5 -24 3 -13 -3 -27 0 -30
6 -4 6 -15 11 -25 11 -14 0 -17 6 -14 28 3 18 2 23 -5 14 -6 -9 -12 4 -20 44
-15 72 -15 71 3 71 8 0 15 -7 15 -16z"/>
<path d="M2653 4163 c-15 -5 -17 -23 -4 -23 5 0 11 7 15 15 3 8 4 15 3 14 -1
0 -8 -3 -14 -6z"/>
<path d="M2625 3910 c3 -5 8 -10 11 -10 2 0 4 5 4 10 0 6 -5 10 -11 10 -5 0
-7 -4 -4 -10z"/>
<path d="M2622 3755 c0 -16 2 -22 5 -12 2 9 2 23 0 30 -3 6 -5 -1 -5 -18z"/>
<path d="M2520 3530 c-18 -12 -2 -12 25 0 13 6 15 9 5 9 -8 0 -22 -4 -30 -9z"/>
<path d="M2471 3504 c0 -11 3 -14 6 -6 3 7 2 16 -1 19 -3 4 -6 -2 -5 -13z"/>
<path d="M2610 3482 c0 -14 40 -22 41 -9 0 7 5 -3 10 -22 12 -41 21 -37 11 5
-6 22 -15 30 -35 32 -15 2 -27 -1 -27 -6z"/>
<path d="M2660 3385 c0 -8 5 -15 10 -15 6 0 10 7 10 15 0 8 -4 15 -10 15 -5 0
-10 -7 -10 -15z"/>
<path d="M6080 5204 c0 -32 4 -65 9 -73 5 -8 7 14 4 55 -7 87 -13 96 -13 18z"/>
<path d="M7361 5194 c0 -11 3 -14 6 -6 3 7 2 16 -1 19 -3 4 -6 -2 -5 -13z"/>
<path d="M4601 5164 c0 -11 3 -14 6 -6 3 7 2 16 -1 19 -3 4 -6 -2 -5 -13z"/>
<path d="M7375 5170 c-3 -5 1 -10 10 -10 9 0 13 5 10 10 -3 6 -8 10 -10 10 -2
0 -7 -4 -10 -10z"/>
<path d="M7300 5161 c0 -6 5 -13 10 -16 6 -3 10 1 10 9 0 9 -4 16 -10 16 -5 0
-10 -4 -10 -9z"/>
<path d="M2697 5136 c-4 -10 -1 -13 9 -9 7 3 14 9 14 14 0 14 -17 10 -23 -5z"/>
<path d="M4621 5115 c0 -11 4 -27 9 -35 9 -13 10 -13 9 0 0 8 -4 24 -9 35 l-9
20 0 -20z"/>
<path d="M7275 5121 c-3 -5 6 -78 20 -162 21 -130 25 -186 25 -366 0 -493 -94
-838 -362 -1330 -281 -516 -485 -716 -984 -963 l-141 -70 -74 11 c-41 6 -82
11 -92 13 -10 1 -29 21 -42 44 l-23 41 56 11 c382 77 703 231 915 438 37 37
67 70 67 75 0 5 -30 -19 -67 -53 -124 -114 -310 -241 -361 -246 -13 -2 -32
-10 -41 -18 -10 -9 -25 -16 -34 -16 -9 0 -19 -5 -23 -11 -3 -6 -17 -9 -30 -6
-13 2 -21 0 -18 -4 3 -5 -4 -9 -16 -9 -12 0 -18 -4 -15 -10 3 -5 -3 -10 -14
-10 -10 0 -28 -3 -38 -6 -10 -4 0 6 22 21 22 15 43 32 46 38 4 5 15 7 25 3 10
-4 15 -4 11 0 -4 5 19 35 52 68 32 34 74 77 93 96 18 19 54 46 78 59 25 14 54
29 65 35 11 6 22 14 25 17 9 11 119 79 127 79 4 0 1 -5 -7 -11 -13 -9 -13 -10
0 -6 8 2 15 8 15 14 0 5 52 57 116 115 64 59 131 126 150 150 18 23 39 47 46
51 7 4 44 61 82 125 122 208 221 433 234 532 5 37 1 29 -23 -40 -16 -47 -34
-93 -40 -102 -5 -10 -10 -23 -10 -28 0 -18 -145 -310 -182 -366 -72 -111 -89
-134 -128 -173 -23 -23 -62 -58 -87 -78 -26 -21 -59 -50 -74 -65 -17 -17 -38
-28 -56 -28 -20 0 -24 -3 -14 -9 11 -7 -11 -26 -85 -74 -54 -35 -121 -76 -149
-90 -135 -69 -200 -97 -216 -92 -9 3 -21 0 -25 -6 -4 -8 -3 -9 4 -5 7 4 12 2
12 -5 0 -7 -13 -10 -35 -7 -34 4 -48 -6 -22 -15 6 -2 -3 -7 -21 -11 -18 -4
-61 -19 -95 -33 -34 -14 -68 -27 -77 -29 -8 -2 -42 -11 -75 -20 -33 -9 -79
-19 -102 -21 -24 -3 -41 -8 -38 -12 9 -16 -114 -34 -240 -36 -83 -1 -170 -10
-240 -24 -139 -27 -359 -51 -363 -40 -2 5 -11 9 -20 9 -15 0 -15 2 -2 10 13 9
13 10 -1 10 -8 0 -26 11 -38 24 -13 14 -36 30 -52 36 -31 13 -37 25 -16 33 6
3 51 21 98 40 91 37 566 270 679 333 165 91 308 193 331 235 6 12 -24 -8 -68
-43 -43 -36 -98 -75 -123 -89 -25 -13 -52 -29 -60 -35 -36 -27 -580 -297 -587
-291 -2 2 50 57 115 123 65 65 155 166 200 224 146 186 144 184 203 199 179
44 415 149 552 245 75 53 177 143 177 157 0 19 -24 7 -75 -36 -29 -25 -59 -43
-67 -40 -7 3 -22 -1 -33 -9 -18 -14 -18 -15 -2 -16 9 0 17 5 17 10 0 6 6 10
13 10 14 -1 -34 -42 -72 -62 -14 -7 -36 -23 -50 -36 -14 -13 -33 -21 -42 -19
-9 2 -21 -4 -28 -14 -6 -11 -23 -19 -39 -19 -15 0 -35 -9 -44 -20 -10 -11 -30
-22 -45 -26 -15 -4 -45 -15 -65 -26 -21 -10 -38 -14 -38 -8 0 5 -5 10 -11 10
-5 0 -7 -5 -4 -10 3 -6 -6 -15 -22 -21 -234 -92 -451 -137 -758 -158 l-110 -8
100 -1 c55 -1 134 3 175 9 41 5 118 13 170 19 52 5 117 16 145 24 56 17 63 16
41 -11 -8 -10 -42 -54 -74 -98 -142 -192 -385 -427 -495 -480 -127 -60 -185
-74 -276 -71 -47 2 -184 4 -303 5 l-217 1 -70 61 c-39 33 -91 91 -117 130 -39
60 -47 81 -56 146 -8 55 -7 82 1 94 9 16 3 22 -53 49 -70 33 -156 117 -191
186 -11 21 -22 41 -26 44 -8 7 -35 84 -65 180 -21 70 -26 113 -31 242 -3 87
-10 155 -14 152 -5 -3 -9 -58 -9 -122 0 -184 55 -432 141 -637 18 -41 36 -75
40 -75 5 0 9 -6 9 -12 1 -7 14 -28 30 -47 16 -19 28 -37 25 -39 -3 -3 -26 6
-52 18 -27 13 -64 31 -83 39 -44 20 -166 96 -205 128 -165 136 -264 299 -327
542 -27 104 -31 133 -32 276 0 88 1 200 4 248 5 73 4 84 -6 64 -15 -28 -28
-125 -26 -192 1 -35 -2 -45 -8 -35 -6 10 -8 -1 -5 -35 9 -98 13 -210 8 -222
-3 -7 -11 -13 -19 -13 -8 0 -14 -10 -14 -27 l0 -26 19 21 c10 12 21 22 25 22
9 0 7 -126 -4 -202 -12 -83 -16 -331 -6 -378 10 -48 37 -132 41 -128 2 2 -3
46 -11 98 -7 52 -14 110 -14 128 0 30 2 32 33 32 18 0 60 -5 92 -11 54 -10 63
-16 139 -93 45 -45 111 -102 148 -126 69 -46 87 -68 68 -80 -7 -4 8 -11 32
-15 l43 -7 -60 -19 c-33 -10 -98 -21 -145 -25 -47 -4 -88 -11 -91 -17 -4 -5
-61 -11 -127 -13 -67 -2 -132 -6 -145 -9 -14 -4 -28 -2 -31 4 -4 6 -17 11 -29
11 -44 0 -456 248 -526 316 -41 41 -336 234 -357 234 -2 0 -4 -4 -4 -10 0 -5
34 -33 76 -61 43 -28 127 -88 188 -132 61 -44 152 -108 201 -140 50 -33 137
-97 195 -142 58 -45 114 -87 125 -93 41 -22 276 -103 288 -99 7 2 19 -1 27 -8
8 -6 62 -26 120 -44 58 -18 110 -37 115 -41 6 -4 55 -20 110 -35 55 -15 138
-38 184 -52 47 -13 175 -46 285 -73 111 -28 215 -55 231 -60 48 -16 126 -157
241 -435 l57 -140 1 -125 c1 -106 -19 -335 -41 -473 -5 -32 -8 -37 -27 -31
-30 8 -430 207 -437 217 -3 5 -29 19 -56 32 -28 12 -54 28 -57 34 -4 6 -14 11
-22 11 -7 0 -58 21 -111 46 -158 74 -192 90 -308 139 -60 26 -114 51 -120 56
-5 5 -16 9 -24 9 -14 0 -110 41 -141 60 -45 28 -200 99 -227 105 -18 4 -35 11
-38 16 -4 5 -13 9 -20 9 -8 0 -38 11 -67 25 -29 13 -100 40 -158 59 -58 19
-163 55 -235 80 -71 24 -185 58 -252 75 -68 17 -131 35 -140 39 -10 5 -43 21
-73 36 -108 52 -168 90 -236 151 -7 5 -25 20 -40 32 -247 194 -272 214 -454
373 -35 30 -72 63 -84 73 -54 47 -176 159 -245 224 -42 39 -104 94 -139 121
-35 28 -82 66 -105 85 -152 125 -474 377 -482 377 -3 0 -5 -31 -5 -68 l0 -69
75 -77 c120 -125 142 -209 129 -486 -5 -96 -9 -257 -9 -356 l0 -182 -60 -6
c-33 -3 -77 -10 -98 -16 l-37 -11 0 -124 c0 -112 2 -125 18 -125 32 0 247 -43
259 -53 7 -5 11 -13 8 -17 -7 -12 -7 -333 0 -353 13 -31 20 -18 23 40 1 32 6
61 10 64 7 6 234 -48 290 -69 137 -52 186 -74 317 -138 127 -62 312 -180 301
-191 -2 -2 -93 19 -202 46 -250 62 -355 80 -538 89 -80 5 -147 10 -149 12 -3
3 -35 82 -72 175 -38 94 -76 180 -86 193 -10 13 -21 36 -24 52 -6 28 -25 52
-25 32 0 -8 40 -114 60 -157 5 -11 27 -65 50 -120 62 -152 161 -373 175 -392
8 -10 17 -15 21 -10 7 7 -1 28 -32 89 -8 14 -14 33 -14 41 0 9 -4 17 -9 19 -4
2 -12 13 -15 26 -7 20 -5 22 21 18 15 -3 78 -7 138 -11 109 -6 272 -28 330
-44 17 -5 85 -22 152 -37 99 -23 118 -30 105 -40 -9 -6 -29 -14 -44 -18 -15
-3 -33 -12 -40 -19 -18 -18 -126 -87 -136 -87 -5 0 -19 -12 -33 -26 -35 -38
-65 -47 -97 -30 -28 14 -135 41 -210 52 -24 4 -56 17 -72 30 -36 31 -44 30
-36 -2 7 -28 110 -179 153 -225 21 -23 22 -27 8 -39 -8 -7 -15 -17 -15 -22 0
-6 28 14 62 44 35 29 67 57 73 61 28 24 295 202 327 218 20 10 38 23 40 28 6
17 73 -14 134 -61 100 -77 129 -113 169 -212 65 -158 171 -439 184 -487 l13
-45 -56 -83 c-30 -45 -58 -95 -61 -111 -13 -61 -24 -48 -129 155 -23 44 -70
123 -105 175 -53 80 -61 98 -51 113 10 16 9 18 -9 12 -10 -3 -22 -1 -26 5 -12
19 -149 83 -190 90 -48 7 -48 17 -2 94 69 115 130 179 201 211 27 12 45 24 39
28 -16 10 -114 -41 -182 -97 -36 -29 -109 -96 -161 -149 -66 -68 -101 -97
-118 -97 -31 0 -152 -31 -152 -39 0 -3 -33 -41 -73 -84 -76 -81 -142 -177
-135 -198 2 -6 20 15 40 48 37 59 107 143 120 143 4 0 6 -42 4 -92 -3 -72 -10
-108 -31 -158 -46 -113 -73 -203 -80 -263 -4 -31 -10 -55 -14 -52 -5 2 -20 28
-34 57 -60 127 -59 122 -48 184 5 33 13 88 16 124 4 36 14 85 22 109 17 50 87
163 150 239 39 49 56 81 34 68 -14 -9 -115 -137 -167 -211 -53 -76 -80 -158
-91 -267 -3 -38 -9 -68 -12 -68 -3 0 -19 23 -36 51 -16 28 -55 89 -86 137 -30
48 -80 126 -110 175 -39 64 -55 82 -57 67 -4 -22 153 -276 290 -470 54 -78
141 -270 143 -321 2 -25 10 -60 20 -78 30 -60 10 -53 -45 15 -30 38 -77 93
-103 124 -70 80 -224 279 -273 353 -14 22 -28 36 -31 33 -10 -10 127 -198 342
-469 91 -114 103 -126 133 -127 17 0 32 1 32 3 0 2 -9 22 -20 45 -11 23 -27
75 -36 116 -15 72 -14 77 10 178 68 273 187 474 435 731 87 90 94 85 30 -21
-69 -114 -96 -206 -106 -358 -7 -123 9 -247 43 -321 14 -29 24 -59 23 -66 -2
-12 18 -66 22 -57 1 3 3 41 4 85 1 44 9 106 19 139 19 66 64 171 70 165 2 -2
0 -29 -5 -59 -32 -201 85 -418 286 -529 71 -39 89 -45 157 -49 77 -5 94 2 65
27 -20 16 -37 81 -35 130 1 22 3 41 6 41 14 0 126 -122 144 -157 14 -28 28
-43 40 -43 11 0 17 3 15 8 -3 4 -36 59 -74 122 -75 123 -103 174 -103 187 0
22 143 153 167 153 5 0 20 -26 33 -57 13 -32 52 -114 87 -182 34 -68 63 -129
63 -136 0 -7 -16 -27 -35 -44 -33 -28 -45 -51 -27 -51 29 0 265 209 291 258
17 32 0 27 -32 -9 -14 -17 -31 -28 -37 -24 -5 3 -10 0 -10 -8 0 -8 -9 -22 -20
-32 -24 -22 -25 -16 -4 33 44 105 53 150 55 292 1 60 7 109 13 116 12 11 29
15 83 16 18 1 30 5 28 8 -8 13 237 56 255 45 5 -3 11 -1 15 5 20 33 49 -21 47
-89 -1 -25 -5 -47 -9 -50 -5 -3 -15 -19 -23 -36 -16 -32 -179 -277 -189 -285
-4 -3 -18 -21 -31 -40 -34 -48 -56 -75 -119 -142 -43 -46 -50 -58 -35 -58 11
0 26 6 32 12 10 10 15 10 23 -2 11 -18 38 9 134 135 33 43 65 83 71 89 47 49
124 140 124 147 0 5 -4 9 -9 9 -13 0 -106 -95 -153 -158 -23 -29 -43 -51 -45
-48 -2 2 17 32 44 66 26 34 53 69 58 78 6 9 31 50 57 92 68 110 75 118 87 101
6 -9 3 -29 -10 -58 -22 -51 -23 -63 -9 -63 6 0 28 37 49 82 99 216 111 235
143 242 76 15 153 3 118 -19 -17 -11 -11 -51 19 -116 16 -35 50 -118 75 -184
26 -66 50 -126 55 -133 6 -10 18 -8 57 9 27 12 56 23 64 24 8 1 56 17 105 35
149 54 303 98 433 125 121 25 169 47 243 111 23 21 122 -16 184 -68 90 -76
298 -291 388 -401 49 -59 95 -107 103 -107 21 0 17 11 -19 50 -17 20 -61 69
-97 110 -158 183 -346 364 -550 530 -111 91 -269 190 -452 283 -156 80 -203
96 -310 107 -84 8 -147 -3 -78 -14 19 -3 65 -10 101 -16 36 -5 79 -16 95 -24
16 -8 47 -21 69 -31 83 -34 304 -148 323 -165 10 -10 34 -26 53 -35 48 -25
146 -94 186 -132 19 -18 43 -35 53 -38 11 -4 20 -11 20 -16 0 -5 -17 -2 -37 6
-55 21 -228 62 -295 70 -32 4 -58 10 -58 14 0 3 -28 7 -63 8 -34 1 -116 8
-182 17 -426 56 -826 40 -1168 -45 -213 -52 -303 -87 -422 -163 -69 -43 -170
-138 -191 -178 -27 -52 -32 -28 -8 38 38 106 82 173 173 265 190 189 388 313
626 391 313 102 715 150 875 105 247 -71 637 -263 960 -473 73 -47 235 -159
253 -174 7 -6 46 -36 87 -66 41 -31 113 -88 160 -128 46 -39 105 -87 130 -108
25 -20 81 -70 125 -112 70 -66 115 -93 115 -68 0 7 -134 134 -215 205 -57 50
-63 59 -69 100 -14 106 -28 594 -23 795 4 169 3 222 -6 219 -35 -11 -28 -756
9 -990 3 -20 2 -37 -3 -37 -4 0 -42 27 -83 60 l-75 60 -27 106 c-15 58 -29
109 -32 112 -17 16 -16 -16 3 -94 11 -49 19 -89 18 -91 -2 -1 -17 10 -34 25
-26 22 -36 46 -62 142 -16 63 -33 133 -37 155 -3 22 -12 62 -20 89 -8 27 -14
79 -14 115 0 78 24 323 46 471 8 58 19 154 23 214 7 98 6 116 -14 180 -39 123
-114 305 -195 472 l-78 161 -56 16 c-30 8 -64 13 -76 10 -11 -3 -20 -1 -20 5
0 21 90 25 154 7 97 -27 105 -29 76 -11 -14 8 -33 15 -42 16 -10 0 -18 4 -18
9 0 15 367 19 430 4 112 -25 239 -111 495 -336 74 -64 147 -133 162 -152 35
-43 50 -46 26 -4 -16 28 -166 171 -235 226 -99 76 100 5 232 -84 110 -73 113
-76 105 -125 -16 -106 -37 -193 -54 -226 -10 -21 -22 -48 -26 -62 -4 -14 -53
-117 -109 -230 -55 -113 -102 -218 -104 -235 -3 -28 -2 -29 11 -10 55 77 170
315 227 473 70 190 99 324 74 340 -6 4 -13 15 -17 24 -13 37 -266 174 -392
214 -64 20 -105 41 -105 54 0 5 19 11 43 15 23 4 86 15 141 26 54 11 148 22
210 25 l111 6 48 -66 c27 -36 60 -78 73 -93 37 -42 88 -121 124 -193 39 -76
38 -75 45 -68 8 8 -65 143 -111 209 -21 30 -64 86 -96 126 -32 39 -58 74 -58
77 0 9 66 7 93 -3 35 -13 277 -343 277 -377 0 -6 8 -18 17 -25 10 -8 1 16 -20
56 -39 73 -45 97 -24 90 6 -2 91 -11 187 -20 322 -29 382 -42 510 -110 25 -13
60 -31 78 -39 17 -9 32 -22 32 -29 0 -6 14 -25 31 -42 43 -41 90 -117 125
-200 29 -69 29 -72 29 -260 -1 -323 -48 -533 -156 -690 -33 -50 -64 -92 -67
-95 -4 -3 -25 -27 -47 -55 -22 -27 -83 -97 -135 -155 -90 -100 -153 -175 -175
-211 -65 -105 -127 -172 -181 -196 -27 -12 -83 -36 -124 -54 -97 -42 -104 -49
-49 -49 28 0 59 9 88 25 53 31 55 31 35 0 -16 -24 -16 -25 9 -25 17 0 33 12
52 38 43 57 117 132 127 126 4 -3 8 1 8 8 0 8 12 27 28 44 15 17 32 38 37 46
6 8 22 33 37 56 15 22 39 52 53 66 14 14 25 28 25 31 0 3 9 15 20 27 11 12 20
28 20 35 0 9 5 11 13 7 6 -4 9 -3 4 1 -12 13 63 84 82 78 14 -4 14 -3 1 6 -13
9 -12 13 8 33 l23 23 -7 -30 c-10 -44 -37 -105 -47 -105 -4 0 -6 -4 -3 -9 6
-9 -6 -42 -52 -146 -38 -85 -142 -288 -153 -300 -13 -13 -11 -35 4 -35 17 0
57 61 106 163 56 117 81 172 81 180 0 4 13 35 29 69 15 35 38 92 50 128 27 80
30 88 32 98 3 19 42 85 67 114 15 18 38 53 52 78 13 25 30 51 37 58 7 7 13 19
13 26 0 7 6 26 14 42 18 37 49 189 77 379 25 174 24 336 -4 375 -8 12 -13 29
-10 36 3 8 -1 14 -10 14 -22 0 -25 35 -10 145 7 55 17 181 23 280 11 197 14
224 28 264 6 14 17 52 26 84 9 31 23 81 32 110 8 28 16 59 18 67 12 65 19 90
25 90 3 0 7 10 7 23 5 64 18 135 30 159 8 15 14 40 14 56 0 37 19 93 30 87 5
-3 11 8 15 25 4 17 12 36 19 43 19 19 56 87 56 101 0 8 7 19 15 26 8 7 15 20
15 29 0 9 14 43 31 76 17 33 28 50 26 37 -3 -13 -1 -20 5 -16 5 3 7 15 5 26
-6 20 36 122 45 112 3 -3 8 2 12 11 3 9 2 13 -4 10 -18 -11 -16 -5 35 110 8
17 28 84 46 150 17 66 35 129 40 140 25 60 49 338 49 565 0 150 -22 378 -44
465 -8 30 -10 60 -5 73 8 22 -4 31 -16 13z m-4352 -1621 c6 -33 6 -34 -9 -15
-16 19 -16 19 -8 -5 4 -14 7 -35 6 -48 -1 -15 2 -21 10 -16 7 5 8 3 4 -5 -5
-8 -1 -14 12 -18 11 -3 23 -16 26 -29 4 -14 10 -22 15 -19 10 5 41 -37 41 -57
0 -6 -7 -3 -16 8 -13 16 -15 16 -10 2 3 -10 1 -18 -4 -18 -5 0 -13 12 -16 26
-6 23 -9 25 -46 19 -29 -5 -43 -3 -49 6 -9 15 -3 29 14 29 7 0 6 -4 -3 -10
-11 -7 -4 -10 25 -10 35 1 38 2 23 14 -10 7 -18 21 -18 31 0 9 -9 19 -21 22
-19 5 -20 10 -14 47 4 23 8 49 8 58 1 9 5 14 9 12 4 -3 8 0 8 7 0 21 7 5 13
-31z m-2658 -189 c24 -25 79 -89 124 -141 l81 -95 1 -170 c2 -195 1 -184 16
-210 6 -11 16 -39 22 -62 7 -24 16 -43 21 -43 15 0 21 36 11 62 -12 32 -38
143 -45 191 -3 27 -1 37 7 34 7 -2 11 -18 9 -38 -2 -27 0 -31 10 -21 18 18 28
15 28 -10 0 -12 3 -19 6 -16 3 3 36 -26 74 -65 44 -47 64 -74 57 -79 -7 -4 -3
-6 8 -6 11 1 35 -9 53 -22 25 -19 29 -26 20 -38 -10 -11 -8 -13 7 -11 28 4 61
-9 121 -47 29 -19 61 -34 71 -34 19 0 55 -20 37 -20 -6 0 -45 11 -86 24 -57
18 -90 22 -139 19 -35 -2 -102 0 -149 5 -50 5 -87 5 -91 0 -7 -10 -309 -31
-318 -22 -9 9 -7 401 3 559 7 116 6 154 -8 219 -9 43 -16 82 -16 88 0 14 19
-1 65 -51z m3280 -213 c6 -5 4 -12 -5 -19 -12 -8 -10 -9 8 -4 13 4 22 2 22 -4
0 -6 15 -17 33 -25 28 -12 30 -14 12 -21 -11 -3 -28 -11 -38 -16 -11 -6 -20
-9 -20 -7 -1 2 -10 18 -20 36 -10 18 -16 39 -13 47 3 8 1 17 -4 20 -6 4 -10 0
-10 -7 -1 -13 -39 60 -40 75 0 4 15 -9 32 -30 18 -21 37 -41 43 -45z m-3010
-97 c33 -41 92 -88 140 -110 17 -8 83 -16 152 -20 l121 -6 112 -140 c62 -77
131 -160 154 -185 77 -84 126 -145 126 -154 0 -6 -5 -5 -12 2 -7 7 -23 12 -35
12 -28 0 -187 58 -293 107 -41 19 -84 39 -95 43 -18 7 -72 46 -160 112 -78 61
-201 201 -239 275 -16 32 -22 103 -8 103 4 -1 21 -18 37 -39z m6308 -56 c-26
-121 -40 -177 -68 -280 -15 -55 -34 -122 -41 -150 -8 -27 -18 -59 -23 -70 -5
-11 -17 -42 -27 -70 -10 -27 -21 -54 -24 -60 -4 -5 -10 -23 -14 -40 -4 -16
-11 -32 -14 -35 -4 -3 -18 -28 -31 -57 -13 -29 -29 -49 -34 -46 -6 3 -7 1 -3
-6 10 -15 -34 -101 -51 -101 -7 0 -23 11 -35 25 -12 14 -28 25 -35 25 -7 0
-13 5 -13 10 0 6 -7 10 -15 10 -14 0 12 40 75 117 25 31 89 138 133 223 27 52
53 99 58 104 5 6 9 16 9 23 0 7 15 43 33 80 18 38 39 88 46 113 7 25 19 61 26
80 18 46 25 71 29 108 4 26 26 75 32 69 2 -1 -4 -34 -13 -72z m-3166 0 c1 -36
-3 -65 -8 -65 -5 0 -9 5 -9 10 0 6 -8 10 -17 10 -10 1 -28 16 -40 35 -23 37
-20 45 28 64 42 17 45 14 46 -54z m-159 -36 c2 -5 11 -9 20 -9 15 0 15 -2 2
-11 -13 -9 -12 -10 3 -5 10 3 46 -4 81 -15 55 -18 63 -24 60 -43 -2 -11 -1
-15 2 -8 4 8 15 -5 30 -35 13 -26 33 -62 44 -80 l21 -31 -88 -8 c-158 -13
-451 17 -474 50 -4 5 -11 6 -16 3 -5 -3 -21 0 -36 8 -14 7 -28 11 -31 8 -6 -6
-104 26 -124 41 -11 8 -11 11 0 18 8 4 -1 5 -19 2 -23 -5 -33 -3 -33 6 0 9 -4
10 -13 2 -9 -8 -16 -6 -24 8 -16 24 0 30 75 30 31 0 86 4 122 9 36 5 100 12
143 16 42 4 75 11 71 16 -3 5 5 9 17 9 27 0 101 21 114 32 10 9 48 0 53 -13z
m3240 -79 c-18 -50 -35 -87 -41 -83 -6 3 -7 1 -3 -6 4 -7 -2 -32 -13 -56 -12
-25 -21 -47 -21 -50 0 -10 -42 -100 -49 -105 -3 -3 -19 -32 -36 -65 -16 -33
-32 -62 -35 -65 -4 -3 -19 -28 -34 -56 -15 -27 -38 -63 -52 -79 -13 -15 -24
-31 -24 -34 0 -3 -22 -29 -48 -58 l-47 -52 -50 21 c-27 11 -57 24 -66 28 -10
5 -66 18 -125 30 -60 11 -111 24 -114 28 -3 4 -11 7 -17 8 -7 1 -25 2 -40 3
-27 2 -27 3 -5 11 12 5 30 7 40 4 14 -5 14 -4 2 4 -11 9 -5 15 34 31 26 12 52
21 57 21 5 0 9 4 9 9 0 5 20 16 45 24 24 9 60 27 78 41 19 14 39 26 45 26 7 0
12 4 12 8 0 5 17 17 37 28 21 10 46 26 55 35 10 9 31 22 46 29 15 8 46 32 69
53 26 25 46 36 54 32 8 -6 10 -4 5 4 -9 14 22 53 36 45 4 -3 7 -1 6 4 -4 13
122 152 138 152 8 0 14 -5 14 -11 0 -5 5 -7 12 -3 9 6 9 9 0 12 -19 6 -14 37
12 64 12 14 26 33 29 42 4 9 9 16 11 16 3 0 -9 -40 -26 -90z m-626 -177 c-87
-84 -137 -123 -149 -119 -7 3 -13 -2 -13 -10 0 -11 -6 -14 -16 -10 -9 4 -13 2
-8 -5 7 -12 -12 -29 -33 -29 -7 0 -13 11 -13 25 0 14 4 25 9 25 5 0 11 9 14
20 3 11 1 20 -4 20 -5 0 -9 5 -9 10 0 6 9 10 19 10 11 0 23 5 26 10 3 6 13 10
20 10 14 0 106 38 155 65 43 23 43 16 2 -22z m-2258 -63 c41 -41 44 -70 5 -70
-11 0 -80 15 -152 34 -73 18 -163 41 -202 51 -38 9 -75 20 -82 23 -6 4 79 6
190 4 l202 -4 39 -38z m1996 -83 l0 -62 -42 -22 c-41 -21 -119 -44 -200 -57
-35 -6 -39 -4 -63 31 -13 21 -32 48 -40 60 -16 21 -15 21 32 32 53 12 211 55
258 70 54 17 55 16 55 -52z m-4562 -148 c13 -5 33 -9 45 -9 15 0 43 -26 92
-86 39 -47 75 -91 80 -97 38 -45 38 -46 8 -42 -15 2 -39 4 -52 4 -17 1 -22 5
-17 17 4 12 2 15 -9 11 -9 -4 -34 18 -74 66 -32 40 -70 83 -85 96 -14 13 -23
28 -20 32 3 5 -4 9 -15 9 -11 0 -23 5 -26 10 -7 11 27 6 73 -11z m5388 -131
c-16 -212 -29 -334 -36 -353 -8 -19 -8 -19 -18 5 -5 14 -28 45 -49 70 l-40 44
24 51 c73 151 91 184 97 178 3 -3 6 5 6 18 0 28 10 69 17 69 3 0 2 -37 -1 -82z
m-6256 -150 c47 -27 99 -62 115 -77 17 -16 50 -43 75 -61 l45 -32 -55 7 c-30
4 -88 13 -129 22 -40 8 -91 15 -112 15 -64 1 -70 11 -63 105 8 94 -2 93 124
21z m1203 -36 c26 -26 47 -55 47 -67 0 -11 7 -33 16 -50 9 -16 25 -46 35 -66
19 -38 101 -119 120 -119 14 0 119 -108 119 -121 0 -13 -2 -12 -77 27 -73 38
-132 95 -225 215 -32 41 -71 90 -88 109 -60 68 -100 117 -100 124 0 4 24 4 53
0 44 -5 59 -13 100 -52z m1131 -127 c36 -14 123 -53 193 -87 l128 -62 -143
-27 c-313 -60 -603 -147 -771 -232 -90 -45 -109 -63 -97 -93 7 -17 9 -17 28 9
11 15 26 27 34 27 8 0 14 4 14 9 0 15 91 61 126 64 18 1 30 4 28 6 -7 7 110
53 171 67 6 1 18 5 28 9 23 9 22 0 -3 -25 -12 -12 -26 -18 -32 -14 -7 4 -8 3
-4 -5 8 -12 -10 -41 -24 -41 -5 0 -10 6 -13 13 -2 6 -3 2 -1 -9 2 -12 -5 -32
-15 -45 -48 -63 -54 -92 -48 -237 l7 -137 -108 -34 c-59 -18 -135 -46 -170
-62 -34 -16 -67 -29 -72 -29 -6 0 -10 -4 -10 -10 0 -5 -12 -10 -27 -10 l-26 0
6 123 c7 128 24 246 52 340 14 50 26 66 101 135 121 114 356 275 436 298 26 8
66 30 90 48 24 19 46 35 49 35 4 1 36 -10 73 -24z m-260 0 c-10 -8 -23 -15
-28 -15 -6 0 -1 7 10 15 10 8 23 15 28 15 6 0 1 -7 -10 -15z m-1944 -19 c87
-16 168 -43 191 -63 8 -7 20 -13 25 -13 6 0 28 -18 49 -40 21 -22 44 -40 51
-40 6 0 17 -7 25 -16 11 -13 7 -13 -24 2 -20 10 -37 21 -37 26 0 4 -7 8 -15 8
-14 0 -105 37 -158 65 -16 8 -37 15 -47 15 -11 0 -29 4 -42 9 -13 5 -54 16
-92 25 -39 9 -73 21 -77 27 -4 7 -12 8 -19 4 -8 -5 -11 -4 -6 3 8 13 70 8 176
-12z m1970 0 c0 -2 -7 -6 -15 -10 -8 -3 -15 -1 -15 4 0 6 7 10 15 10 8 0 15
-2 15 -4z m-193 -52 c-3 -3 -12 -4 -19 -1 -8 3 -5 6 6 6 11 1 17 -2 13 -5z
m-124 -31 c-7 -2 -19 -2 -25 0 -7 3 -2 5 12 5 14 0 19 -2 13 -5z m957 -81 c19
-8 96 -43 171 -76 75 -34 138 -65 140 -71 2 -5 -40 -37 -95 -69 l-98 -59 -27
34 c-60 76 -179 253 -175 260 5 9 39 1 84 -19z m-263 -38 c-3 -3 -12 -4 -19
-1 -8 3 -5 6 6 6 11 1 17 -2 13 -5z m-24 -31 c-3 -7 -6 -13 -8 -13 -2 0 -5 6
-8 13 -3 8 1 14 8 14 7 0 11 -6 8 -14z m47 2 c0 -8 -4 -15 -10 -15 -5 0 -10 7
-10 15 0 8 5 15 10 15 6 0 10 -7 10 -15z m34 -31 c9 -24 7 -31 -5 -11 -6 9
-15 14 -21 11 -7 -4 -8 -2 -4 4 10 17 23 15 30 -4z m-1020 -30 c92 -42 113
-71 77 -107 l-22 -22 -31 35 c-89 101 -112 130 -106 130 3 0 40 -16 82 -36z
m1046 -63 c0 -6 -4 -13 -10 -16 -5 -3 -10 1 -10 9 0 9 5 16 10 16 6 0 10 -4
10 -9z m30 -21 c0 -5 5 -10 11 -10 5 0 7 6 3 13 -5 9 -4 9 5 1 9 -8 8 -18 -2
-44 -14 -32 -33 -28 -21 4 5 12 2 15 -10 10 -16 -6 -23 16 -9 29 10 10 23 8
23 -3z m40 -55 c-7 -9 -15 -13 -17 -11 -6 6 20 36 26 30 2 -2 -2 -10 -9 -19z
m49 -45 c5 0 7 -10 5 -22 -2 -13 -2 -17 2 -10 3 6 10 9 15 6 6 -3 2 -12 -8
-20 -26 -19 -32 -17 -25 8 4 16 1 20 -9 16 -10 -4 -14 2 -13 23 2 43 4 46 14
22 5 -13 14 -23 19 -23z m-1871 9 c2 -5 10 -9 18 -9 8 0 14 -6 15 -12 0 -10 2
-10 6 -1 5 14 73 -28 107 -66 11 -11 24 -21 30 -21 6 0 24 -14 40 -30 16 -16
37 -32 47 -35 11 -4 18 -14 16 -27 -1 -11 5 -23 13 -25 13 -4 13 -3 0 6 -8 5
-11 13 -7 17 3 4 35 -19 71 -50 35 -31 69 -56 74 -56 6 0 12 -4 14 -8 2 -4 23
-23 48 -42 25 -19 47 -37 50 -40 3 -3 35 -28 73 -55 37 -27 67 -52 67 -56 0
-4 -20 -15 -45 -26 -25 -10 -45 -22 -45 -28 0 -5 -12 -18 -25 -28 -22 -15 -26
-16 -42 -3 -55 46 -97 76 -105 76 -5 0 -34 18 -65 40 -30 21 -70 44 -88 50
-33 11 -34 13 -87 140 -49 118 -71 153 -130 210 -34 33 -65 60 -70 60 -4 0 -8
6 -8 14 0 8 -6 16 -12 19 -7 2 -2 2 12 0 14 -3 27 -9 28 -14z m2592 -8 c14 -9
49 -30 79 -46 30 -15 83 -48 117 -72 34 -23 103 -68 154 -98 l93 -55 2 -162
c1 -125 5 -172 18 -203 17 -42 67 -225 67 -244 0 -13 -119 65 -133 86 -4 7
-12 13 -17 13 -14 0 -134 82 -152 104 -24 30 -181 346 -221 447 -29 71 -77
231 -77 254 0 9 42 -5 70 -24z m-78 -96 c40 -107 48 -135 40 -136 -4 0 -29 -3
-57 -5 -27 -3 -81 -9 -120 -12 -66 -7 -72 -6 -105 19 -19 14 -56 34 -82 43
-57 21 -66 32 -44 54 20 20 293 121 320 119 13 -2 26 -24 48 -82z m-3122 -39
c164 -43 159 -38 103 -76 -21 -14 -53 -38 -72 -55 l-34 -29 -16 22 c-9 12 -40
53 -68 90 -29 37 -53 71 -53 76 0 4 10 6 23 3 12 -3 65 -17 117 -31z m2670
-37 c0 -14 -91 -99 -107 -99 -26 0 -114 22 -109 28 8 8 188 80 204 81 6 1 12
-4 12 -10z m70 -14 c0 -8 6 -12 14 -9 18 7 68 -19 101 -52 l27 -27 131 5 c73
3 140 9 149 13 13 5 20 1 27 -16 9 -27 -2 -41 -93 -114 -100 -83 -84 -78 -157
-44 -35 17 -111 51 -169 76 -58 25 -109 48 -113 53 -5 4 11 27 35 50 23 23 34
37 23 32 -11 -6 -33 -24 -49 -41 -29 -30 -59 -40 -70 -22 -6 9 58 71 73 71 6
0 14 6 18 14 7 12 27 23 46 25 4 1 7 -6 7 -14z m508 -226 l41 -90 -35 -34 -34
-34 -90 45 c-49 25 -92 49 -95 53 -2 5 11 21 30 35 19 15 56 46 82 71 26 24
51 45 54 45 3 0 24 -41 47 -91z m-2289 -96 c36 -25 68 -48 71 -52 3 -3 16 -12
30 -19 14 -7 34 -20 44 -27 19 -14 19 -16 -9 -39 -27 -23 -31 -24 -47 -9 -10
8 -15 20 -11 26 3 5 2 7 -4 4 -5 -3 -50 35 -99 85 -98 99 -90 109 25 31z
m-544 15 c34 -18 75 -55 75 -67 0 -4 -25 -39 -56 -77 -31 -38 -61 -79 -66 -91
-6 -13 -15 -23 -19 -23 -5 0 -14 10 -20 23 -7 12 -15 24 -19 27 -22 16 -80
114 -76 128 3 9 10 36 16 59 9 35 15 42 38 45 38 4 92 -6 127 -24z m-338 -21
c-14 -19 -51 -69 -81 -111 l-56 -78 0 53 c0 52 13 125 23 136 11 11 83 32 111
33 l28 0 -25 -33z m940 -218 c-18 -20 -36 -36 -40 -35 -8 1 -98 231 -97 245 1
3 38 -34 85 -83 l84 -90 -32 -37z m2308 151 c14 -27 23 -50 20 -50 -16 0 -95
44 -95 53 0 13 30 47 41 47 5 0 20 -22 34 -50z m-2798 -17 c37 -48 163 -241
163 -251 0 -7 3 -12 8 -12 4 0 12 -10 18 -23 6 -12 29 -56 52 -98 38 -69 41
-81 36 -123 -4 -27 -12 -46 -20 -46 -7 0 -14 3 -16 8 -5 12 -127 105 -223 170
-130 88 -177 164 -141 233 7 14 16 36 19 50 6 22 74 109 85 109 3 0 11 -8 19
-17z m-243 -107 c47 -65 53 -83 37 -114 -21 -39 -39 -90 -52 -142 -17 -74 -24
-79 -37 -28 -25 101 -27 348 -2 348 5 0 29 -29 54 -64z m1671 2 c3 -7 -15 -51
-39 -98 -49 -94 -43 -96 -60 20 -3 19 -8 45 -12 57 -5 20 -2 22 37 26 24 2 50
4 57 5 7 1 15 -4 17 -10z m325 5 c0 -3 -14 -28 -31 -55 -17 -27 -29 -51 -27
-54 3 -3 22 20 42 50 20 30 40 57 44 60 18 11 475 -34 489 -48 2 -2 -20 -47
-47 -100 -28 -54 -47 -103 -43 -109 4 -6 29 37 57 96 58 121 52 117 164 91
142 -32 142 -32 142 -62 l0 -27 19 24 c15 19 23 22 49 16 41 -8 40 -20 0 -41
-18 -9 -40 -22 -48 -28 -8 -7 -46 -18 -85 -26 -170 -32 -507 -137 -553 -173
-9 -7 -16 -7 -23 0 -7 7 -23 4 -49 -9 -62 -31 -88 -22 -109 37 -10 28 -39 105
-64 171 -49 126 -55 162 -35 182 12 12 108 17 108 5z m-918 -190 c-2 -49 -5
-94 -7 -100 -7 -22 -22 -15 -37 18 -8 16 -34 50 -58 75 -23 25 -41 46 -39 48
4 4 128 44 139 45 3 1 4 -38 2 -86z m-880 -105 c52 -79 107 -162 122 -186 29
-46 76 -168 68 -176 -9 -10 -98 59 -166 128 -92 95 -117 150 -124 279 -2 53
-2 97 1 97 3 0 47 -64 99 -142z m775 54 c95 -124 98 -132 80 -173 -9 -19 -23
-52 -32 -74 -9 -22 -28 -57 -42 -78 -25 -36 -28 -38 -41 -20 -17 23 -172 338
-172 351 0 11 109 71 131 72 9 0 43 -35 76 -78z m-617 -139 c45 -41 76 -63 86
-63 6 0 21 -11 33 -24 18 -19 25 -43 32 -101 4 -42 15 -89 23 -106 13 -26 13
-29 -2 -29 -22 0 -86 23 -94 34 -3 5 -4 14 -2 21 3 6 -2 18 -11 25 -8 7 -15
19 -15 27 0 19 -41 113 -49 113 -4 0 -15 17 -26 38 -11 20 -36 61 -57 91 -21
30 -38 58 -38 64 0 7 62 -39 120 -90z m227 -70 c4 -10 19 -39 35 -64 39 -65
35 -70 -17 -19 -32 31 -45 52 -45 72 0 31 17 38 27 11z m683 -170 c-1 -15 -49
-67 -55 -61 -8 7 35 68 47 68 4 0 8 -3 8 -7z"/>
<path d="M525 2799 c-4 -6 -5 -12 -2 -15 2 -3 7 2 10 11 7 17 1 20 -8 4z"/>
<path d="M580 2740 c0 -5 5 -10 10 -10 6 0 10 5 10 10 0 6 -4 10 -10 10 -5 0
-10 -4 -10 -10z"/>
<path d="M481 2664 c0 -11 3 -14 6 -6 3 7 2 16 -1 19 -3 4 -6 -2 -5 -13z"/>
<path d="M725 2589 c-11 -16 -1 -19 13 -3 7 8 8 14 3 14 -5 0 -13 -5 -16 -11z"/>
<path d="M6751 2674 c0 -11 3 -14 6 -6 3 7 2 16 -1 19 -3 4 -6 -2 -5 -13z"/>
<path d="M3178 2833 c6 -2 18 -2 25 0 6 3 1 5 -13 5 -14 0 -19 -2 -12 -5z"/>
<path d="M3705 2730 c3 -5 10 -10 16 -10 5 0 9 5 9 10 0 6 -7 10 -16 10 -8 0
-12 -4 -9 -10z"/>
<path d="M3528 2683 c7 -3 16 -2 19 1 4 3 -2 6 -13 5 -11 0 -14 -3 -6 -6z"/>
<path d="M3713 2683 c9 -2 25 -2 35 0 9 3 1 5 -18 5 -19 0 -27 -2 -17 -5z"/>
<path d="M6600 2670 c0 -5 5 -10 11 -10 5 0 7 5 4 10 -3 6 -8 10 -11 10 -2 0
-4 -4 -4 -10z"/>
<path d="M6485 2570 c-3 -5 -2 -10 4 -10 5 0 13 5 16 10 3 6 2 10 -4 10 -5 0
-13 -4 -16 -10z"/>
<path d="M6120 2330 c-9 -6 -10 -10 -3 -10 6 0 15 5 18 10 8 12 4 12 -15 0z"/>
<path d="M1410 2216 c0 -2 7 -9 15 -16 13 -11 14 -10 9 4 -5 14 -24 23 -24 12z"/>
<path d="M2220 1480 c-13 -8 -12 -10 3 -10 9 0 17 5 17 10 0 12 -1 12 -20 0z"/>
<path d="M7450 5105 c13 -14 26 -25 28 -25 3 0 -5 11 -18 25 -13 14 -26 25
-28 25 -3 0 5 -11 18 -25z"/>
<path d="M7240 5099 c0 -5 5 -7 10 -4 6 3 10 8 10 11 0 2 -4 4 -10 4 -5 0 -10
-5 -10 -11z"/>
<path d="M5119 5067 c6 -14 7 -28 3 -33 -4 -4 -2 -4 5 -1 12 7 7 44 -8 53 -5
3 -5 -6 0 -19z"/>
<path d="M6061 5060 c0 -8 4 -22 9 -30 12 -18 12 -2 0 25 -6 13 -9 15 -9 5z"/>
<path d="M7500 5050 c13 -23 20 -26 20 -6 0 8 -7 16 -15 20 -13 4 -14 2 -5
-14z"/>
<path d="M4627 5043 c-2 -5 0 -19 4 -33 7 -23 7 -22 6 8 -1 33 -3 37 -10 25z"/>
<path d="M4651 5024 c0 -11 3 -14 6 -6 3 7 2 16 -1 19 -3 4 -6 -2 -5 -13z"/>
<path d="M5140 5005 c0 -8 4 -15 10 -15 5 0 7 7 4 15 -4 8 -8 15 -10 15 -2 0
-4 -7 -4 -15z"/>
<path d="M7150 4999 c0 -5 5 -7 10 -4 6 3 10 8 10 11 0 2 -4 4 -10 4 -5 0 -10
-5 -10 -11z"/>
<path d="M7088 4993 c6 -2 18 -2 25 0 6 3 1 5 -13 5 -14 0 -19 -2 -12 -5z"/>
<path d="M3720 4938 c0 -19 2 -20 10 -8 13 19 13 30 0 30 -5 0 -10 -10 -10
-22z"/>
<path d="M7121 4924 c0 -11 3 -14 6 -6 3 7 2 16 -1 19 -3 4 -6 -2 -5 -13z"/>
<path d="M6788 4907 c-5 -10 -8 -68 -8 -127 0 -349 -137 -804 -302 -1007 -162
-198 -313 -306 -584 -417 -129 -52 -195 -70 -364 -96 l-125 -19 95 3 c183 8
468 101 659 215 29 18 60 30 67 27 8 -3 11 0 8 8 -4 10 19 29 33 27 1 0 23 20
48 44 26 24 52 42 60 39 7 -3 16 -1 20 5 3 7 0 8 -9 5 -29 -11 -17 8 39 63 30
30 67 70 82 89 34 45 43 32 43 -67 0 -101 -33 -261 -75 -366 -18 -45 -30 -85
-25 -88 11 -7 64 131 83 215 30 130 47 252 47 339 0 82 3 94 41 175 63 136
127 345 155 506 20 118 24 172 22 295 -2 82 -6 142 -10 132z"/>
<path d="M4172 4710 c0 -14 2 -19 5 -12 2 6 2 18 0 25 -3 6 -5 1 -5 -13z"/>
<path d="M4182 4650 c0 -14 2 -19 5 -12 2 6 2 18 0 25 -3 6 -5 1 -5 -13z"/>
<path d="M7050 4619 c0 -17 -3 -20 -9 -10 -5 8 -10 -12 -13 -55 -3 -38 -1 -74
4 -81 6 -7 5 -19 -1 -32 -12 -22 -15 -48 -4 -38 3 4 11 3 17 -3 9 -6 9 12 2
71 -7 60 -6 90 4 119 7 22 10 43 7 47 -4 3 -7 -5 -7 -18z"/>
<path d="M6020 4601 c0 -5 5 -13 10 -16 6 -3 10 -2 10 4 0 5 -4 13 -10 16 -5
3 -10 2 -10 -4z"/>
<path d="M4201 4584 c0 -11 3 -14 6 -6 3 7 2 16 -1 19 -3 4 -6 -2 -5 -13z"/>
<path d="M5895 4587 c-4 -10 -5 -21 -1 -24 10 -10 18 4 13 24 -4 17 -4 17 -12
0z"/>
<path d="M3701 4554 c0 -11 3 -14 6 -6 3 7 2 16 -1 19 -3 4 -6 -2 -5 -13z"/>
<path d="M6000 4530 c0 -5 5 -10 10 -10 6 0 10 5 10 10 0 6 -4 10 -10 10 -5 0
-10 -4 -10 -10z"/>
<path d="M4206 4514 c-9 -23 -7 -62 3 -68 5 -3 7 -20 5 -37 -3 -21 2 -36 15
-47 10 -10 26 -37 35 -62 15 -42 20 -82 31 -260 3 -41 9 -88 15 -105 14 -45
50 -223 50 -252 0 -29 50 -143 62 -143 5 0 4 8 -1 18 -26 48 -51 148 -65 262
-22 162 -34 320 -25 326 4 2 13 -11 20 -29 12 -30 95 -180 121 -221 66 -99
303 -356 329 -356 17 0 -1 23 -91 117 -145 153 -225 261 -312 423 -41 75 -104
221 -114 264 -4 16 -13 41 -20 55 -8 14 -14 36 -14 49 0 12 -4 22 -9 22 -5 0
-9 6 -8 13 1 46 -14 64 -27 31z"/>
<path d="M4415 4520 c27 -12 43 -12 25 0 -8 5 -22 9 -30 9 -10 0 -8 -3 5 -9z"/>
<path d="M4220 4303 c0 -30 16 -38 23 -11 4 12 4 24 2 27 -3 2 -5 -2 -5 -10 0
-11 -2 -11 -10 1 -8 12 -10 11 -10 -7z"/>
<path d="M4247 4263 c-11 -11 -8 -20 7 -20 8 0 12 6 9 14 -6 15 -7 15 -16 6z"/>
<path d="M4256 4163 c-6 -14 -5 -15 5 -6 7 7 10 15 7 18 -3 3 -9 -2 -12 -12z"/>
<path d="M7441 4154 c0 -11 3 -14 6 -6 3 7 2 16 -1 19 -3 4 -6 -2 -5 -13z"/>
<path d="M6480 4150 c0 -8 -7 -27 -14 -42 -18 -35 -7 -36 17 -3 13 19 15 30 8
43 -8 13 -10 14 -11 2z"/>
<path d="M4272 4085 c0 -16 2 -22 5 -12 2 9 2 23 0 30 -3 6 -5 -1 -5 -18z"/>
<path d="M6420 4089 c0 -5 5 -7 10 -4 6 3 10 8 10 11 0 2 -4 4 -10 4 -5 0 -10
-5 -10 -11z"/>
<path d="M6947 4079 c7 -7 15 -10 18 -7 3 3 -2 9 -12 12 -14 6 -15 5 -6 -5z"/>
<path d="M7481 4034 c0 -11 3 -14 6 -6 3 7 2 16 -1 19 -3 4 -6 -2 -5 -13z"/>
<path d="M2801 3912 c-7 -62 -11 -115 -7 -119 3 -3 6 8 6 25 0 17 5 53 11 81
6 27 9 67 7 88 -2 24 -8 -2 -17 -75z"/>
<path d="M7496 3975 c8 -37 14 -45 14 -19 0 10 -5 26 -10 34 -8 11 -9 7 -4
-15z"/>
<path d="M2821 3885 c0 -16 -4 -41 -6 -55 l-6 -25 11 25 c6 13 9 38 7 55 l-4
30 -2 -30z"/>
<path d="M4896 3827 c-15 -11 -11 -12 26 -9 24 2 47 8 53 13 15 14 -59 11 -79
-4z"/>
<path d="M3471 3784 c0 -11 3 -14 6 -6 3 7 2 16 -1 19 -3 4 -6 -2 -5 -13z"/>
<path d="M2831 3774 c0 -11 3 -14 6 -6 3 7 2 16 -1 19 -3 4 -6 -2 -5 -13z"/>
<path d="M2780 3692 c0 -46 4 -82 10 -82 11 0 8 145 -3 156 -4 4 -7 -29 -7
-74z"/>
<path d="M6240 3759 c0 -5 5 -7 10 -4 6 3 10 8 10 11 0 2 -4 4 -10 4 -5 0 -10
-5 -10 -11z"/>
<path d="M6520 3745 c0 -14 2 -25 4 -25 2 0 6 11 8 25 3 14 1 25 -3 25 -5 0
-9 -11 -9 -25z"/>
<path d="M3482 3740 c0 -14 2 -19 5 -12 2 6 2 18 0 25 -3 6 -5 1 -5 -13z"/>
<path d="M7241 3664 c0 -11 3 -14 6 -6 3 7 2 16 -1 19 -3 4 -6 -2 -5 -13z"/>
<path d="M2827 3664 c-11 -11 -8 -44 3 -44 15 0 24 30 13 41 -5 5 -12 6 -16 3z"/>
<path d="M6510 3640 c-8 -5 -12 -11 -9 -14 2 -3 11 -1 19 4 8 5 12 11 9 14 -2
3 -11 1 -19 -4z"/>
<path d="M2790 3590 c0 -5 5 -10 10 -10 6 0 10 5 10 10 0 6 -4 10 -10 10 -5 0
-10 -4 -10 -10z"/>
<path d="M2831 3584 c0 -11 3 -14 6 -6 3 7 2 16 -1 19 -3 4 -6 -2 -5 -13z"/>
<path d="M7212 3520 c0 -14 2 -19 5 -12 2 6 2 18 0 25 -3 6 -5 1 -5 -13z"/>
<path d="M3530 3464 c0 -10 5 -26 10 -34 8 -11 9 -7 4 15 -8 37 -14 45 -14 19z"/>
<path d="M2801 3424 c0 -11 3 -14 6 -6 3 7 2 16 -1 19 -3 4 -6 -2 -5 -13z"/>
<path d="M2822 3415 c0 -16 2 -22 5 -12 2 9 2 23 0 30 -3 6 -5 -1 -5 -18z"/>
<path d="M2816 3345 c4 -8 8 -15 10 -15 2 0 4 7 4 15 0 8 -4 15 -10 15 -5 0
-7 -7 -4 -15z"/>
<path d="M7257 2990 c-4 -206 -11 -467 -17 -580 -28 -561 -129 -1054 -305
-1490 -52 -129 -192 -414 -228 -463 -13 -18 -34 -54 -48 -82 -13 -27 -27 -52
-31 -55 -9 -7 -148 -218 -148 -225 0 -3 -8 -13 -17 -23 -28 -29 -53 -62 -53
-68 0 -3 15 -4 33 -2 27 3 39 13 80 73 82 120 158 238 168 259 5 12 21 39 34
61 14 22 35 60 46 85 11 25 26 52 33 60 7 8 27 49 45 90 18 41 42 95 53 120
11 25 20 46 20 47 -1 2 12 31 27 65 16 35 41 99 56 143 15 44 33 94 40 110 37
88 121 436 145 595 21 143 50 403 60 535 24 323 36 961 21 1070 -4 29 -10
-111 -14 -325z"/>
<path d="M4180 3007 c0 -16 41 -37 70 -37 28 0 25 13 -9 33 -35 20 -61 22 -61
4z"/>
<path d="M4295 2950 c27 -12 43 -12 25 0 -8 5 -22 9 -30 9 -10 0 -8 -3 5 -9z"/>
<path d="M4340 2942 c0 -16 39 -44 51 -37 8 6 5 13 -12 26 -26 20 -39 24 -39
11z"/>
<path d="M6425 2910 c-3 -5 -2 -10 4 -10 5 0 13 5 16 10 3 6 2 10 -4 10 -5 0
-13 -4 -16 -10z"/>
<path d="M6330 2840 c-9 -6 -10 -10 -3 -10 6 0 15 5 18 10 8 12 4 12 -15 0z"/>
<path d="M6472 2834 c-7 -8 -8 -14 -3 -14 10 0 25 19 20 25 -2 1 -10 -3 -17
-11z"/>
<path d="M0 2806 c0 -11 30 -69 66 -130 63 -103 94 -147 94 -130 0 7 -120 220
-147 259 -12 19 -13 19 -13 1z"/>
<path d="M6190 2810 c-9 -6 -10 -10 -3 -10 6 0 15 5 18 10 8 12 4 12 -15 0z"/>
<path d="M4244 2428 c9 -13 25 -39 36 -58 11 -19 29 -48 39 -65 42 -71 130
-243 139 -275 6 -19 20 -60 31 -90 11 -30 29 -120 40 -200 15 -116 19 -133 20
-84 1 64 -27 233 -54 324 -30 100 -233 470 -259 470 -5 0 -1 -10 8 -22z"/>
<path d="M2210 2302 c0 -4 10 -16 22 -27 23 -19 159 -105 188 -118 8 -4 29
-16 45 -27 39 -25 253 -130 266 -130 5 0 9 4 9 9 0 11 -50 41 -173 103 -94 48
-211 116 -293 172 -38 26 -64 33 -64 18z"/>
<path d="M5609 1960 c-68 -228 -126 -366 -262 -615 -151 -278 -215 -404 -247
-486 -35 -87 -16 -64 36 44 44 93 96 194 252 487 135 256 252 548 240 606 -2
12 -10 -2 -19 -36z"/>
<path d="M5746 2002 c-3 -5 -8 -33 -12 -63 -9 -71 -89 -305 -154 -449 -46
-104 -133 -275 -243 -480 -107 -199 -157 -301 -180 -370 -28 -85 -69 -296 -92
-475 -18 -147 -19 -165 -1 -165 10 0 15 24 20 93 9 115 39 299 58 352 8 22 18
58 22 79 10 52 38 116 51 116 5 0 28 -26 50 -56 56 -79 111 -137 124 -133 6 2
-11 35 -40 74 -28 39 -67 93 -85 122 -31 47 -33 54 -22 85 16 48 23 53 55 31
29 -20 98 -55 249 -125 98 -46 102 -50 142 -168 8 -25 21 -52 29 -60 14 -13
14 -9 8 40 -4 30 -8 73 -9 95 l-1 40 -150 77 c-319 164 -291 144 -265 194 27
53 90 192 90 198 0 3 28 58 63 123 34 65 73 143 86 173 13 30 34 80 48 110
118 259 181 439 183 523 0 26 -13 36 -24 19z"/>
<path d="M7181 1534 c0 -11 3 -14 6 -6 3 7 2 16 -1 19 -3 4 -6 -2 -5 -13z"/>
<path d="M808 1533 c7 -3 16 -2 19 1 4 3 -2 6 -13 5 -11 0 -14 -3 -6 -6z"/>
<path d="M4512 1493 c-6 -15 -21 -71 -32 -123 -63 -283 -74 -387 -60 -555 6
-77 14 -143 19 -148 4 -4 5 66 3 156 -5 184 3 263 54 516 34 167 39 212 16
154z"/>
<path d="M7207 1513 c-2 -5 -7 -26 -11 -48 -14 -80 -75 -335 -86 -355 -4 -9
-11 -31 -14 -50 -10 -46 -54 -199 -66 -225 -5 -11 -15 -42 -24 -70 -23 -78
-94 -263 -130 -340 -65 -138 -76 -161 -76 -167 0 -2 -31 -61 -70 -129 -53 -95
-66 -125 -54 -127 26 -6 39 13 114 166 41 81 77 149 82 150 4 2 6 8 3 13 -3 4
1 19 9 31 8 13 38 84 66 158 29 74 67 175 86 223 19 49 34 98 34 108 0 11 5
29 10 39 18 34 103 357 115 435 4 28 10 55 15 60 13 17 23 135 12 135 -6 0
-13 -3 -15 -7z"/>
<path d="M7162 1460 c0 -14 2 -19 5 -12 2 6 2 18 0 25 -3 6 -5 1 -5 -13z"/>
<path d="M5010 1279 c0 -2 -11 -35 -25 -73 -27 -75 -29 -86 -16 -86 14 0 61
144 51 154 -6 6 -10 8 -10 5z"/>
<path d="M7122 1230 c0 -14 2 -19 5 -12 2 6 2 18 0 25 -3 6 -5 1 -5 -13z"/>
<path d="M5047 733 c-22 -37 -67 -362 -67 -488 0 -141 11 -245 27 -245 10 0
11 8 6 28 -3 15 -7 104 -7 197 -1 158 13 303 44 465 8 43 7 60 -3 43z"/>
<path d="M3621 253 c0 -51 -3 -93 -6 -93 -2 0 -33 11 -69 24 -231 87 -506 71
-901 -54 -98 -31 -207 -75 -270 -108 -59 -31 -12 -29 57 3 49 22 154 62 265
101 93 32 287 74 395 85 98 11 130 10 233 -5 138 -20 277 -53 287 -69 4 -6 4
-40 1 -74 l-6 -63 48 0 c44 0 47 1 41 22 -4 13 -9 36 -13 52 -5 25 -4 27 13
18 10 -5 40 -28 66 -51 41 -37 68 -51 68 -36 0 9 -63 75 -71 75 -4 0 -28 14
-53 30 -48 32 -46 29 -75 185 -8 47 -9 45 -10 -42z"/>
<path d="M7479 275 c-59 -114 -103 -193 -119 -213 -8 -10 -21 -28 -28 -40 -11
-20 -10 -22 16 -22 23 0 32 8 50 46 12 25 27 42 32 39 6 -3 7 1 4 10 -4 8 -2
21 4 28 5 6 26 43 46 81 27 50 36 78 34 105 l-3 36 -36 -70z"/>
<path d="M0 317 c0 -17 36 -91 98 -202 52 -94 66 -115 79 -115 17 0 16 9 -1
29 -7 9 -26 41 -42 71 -16 30 -32 57 -35 60 -4 3 -23 37 -42 75 -48 93 -57
106 -57 82z"/>
<path d="M3900 284 c0 -5 35 -32 78 -61 42 -28 134 -90 204 -138 70 -48 135
-85 144 -83 12 2 -3 17 -47 45 -35 24 -68 46 -74 50 -33 26 -273 183 -287 188
-10 4 -18 3 -18 -1z"/>
<path d="M7491 115 c-13 -38 -27 -74 -32 -79 -15 -17 -10 -36 10 -36 27 0 53
72 49 136 l-3 49 -24 -70z"/>
<path d="M1718 3 c7 -3 16 -2 19 1 4 3 -2 6 -13 5 -11 0 -14 -3 -6 -6z"/>
</g>
</svg>
